<svg xmlns="http://www.w3.org/2000/svg" xmlns:xlink="http://www.w3.org/1999/xlink" width="428.5" height="159" viewBox="0 0 428.5 159" enable-background="new 0 0 428.5 159"><g id="Black_Outline_Layer"><rect x="-16.668" y="-34.65" display="none" fill="none" width="109.316" height="197.137"/><g><path id="University_of_Toronto_Mark_Stacked_1_" fill="#fff" d="M402.361 92.865c13.441.0 21.742 10.715 21.742 21.637.0 12.08-10.506 22.057-22.373 22.057-12.289.0-21.113-9.977-21.113-22.057.0-11.553 10.192-21.637 21.744-21.637m2.209 40.965c7.875.0 12.809-7.771 12.809-15.23.0-11.867-6.828-23.004-17.014-23.004-8.088.0-13.025 7.145-13.025 15.441C387.34 121.959 393.643 133.83 404.57 133.83zM360.881 93.813h-8.99c-3.885.0-6.828.0-9.244-.105-2.207-.105-2.73-.631-3.045-1.051h-1.156c-.211.525-3.047 8.086-3.15 8.508l1.365.84c1.365-3.676 2.941-5.461 10.396-5.461.633.0 3.047.0 5.99.314.418 5.355.521 10.607.521 15.965.0 3.361-.104 15.947-.521 18.676-.213 1.264-.844 1.859-4.307 2.49-1.473.213-2.418.314-3.258.42l.318 1.701c1.121-.104 2.473-.178 4.141-.281 1.689-.104 3.732-.17 6.777-.17 1.158.0 3.049-.078 4.834.029 1.781.105 3.367.109 5.568.209l.209-1.756c-.424.0-1.039-.098-1.996-.227-1.174-.158-3.045-.521-3.781-1.258-1.365-1.576-1.365-12.902-1.365-15.947.0-2.625.42-15.859.42-18.904.0-1.262.422-1.262 4.201-1.262l.129.018c1.693-.059 2.166-.018 2.797-.018 7.457.0 7.664 1.785 9.025 5.461l1.369-.84c-.105-.422-1.574-7.982-1.783-8.508h-1.154c-.318.42-.842.945-3.047 1.051-2.873.125-6.27.105-9.695.105H360.881zM291.686 93.707c-1.682.105-2.951.105-5.051.105-1.051.0-2.1.0-3.148-.105-1.051-.105-1.217-.092-2.225-.209v1.787c6.092 1.154 6.635 2.098 6.424 14.281l-.021 7.457c0 2.836-.193 11.24-.51 13.654-.314 2.732-1.469 2.941-3.043 3.256-.842.211-1.787.422-2.418.527v1.572c1.576.0 3.15-.105 4.725-.209 1.578-.105 3.688-.209 5.262-.209 1.578.0 3.254.104 4.729.209 1.365.0 2.307.104 2.938.209v-1.787c-8.299-1.467-8.299-2.625-8.193-9.66l.008-17.75.104-3.359c-.023-.027-.02.053 30.9 32.766h2.158c-.209-3.467-.209-12.393-.209-16.277.0-5.568-.039-19.926.197-21.721.359-2.738 4.002-2.965 6-2.965v-1.574c-4.516.0-6.994.107-8.988-.104-1.891-.209-3.258-.313-4.41-.313-.945.0-1.996-.107-2.627-.002l-.313 1.574c7.035.424 6.877 1.047 6.877 16.9.0 1.891-.068 11.162-.068 12.947L291.686 93.707zM253.65 92.865c13.447.0 21.742 10.715 21.742 21.637.0 12.08-10.504 22.057-22.373 22.057-12.289.0-21.111-9.977-21.111-22.057C231.908 102.949 242.098 92.865 253.65 92.865zM255.857 133.83c7.875.0 12.814-7.771 12.814-15.23.0-11.867-6.828-23.004-17.018-23.004-8.084.0-13.023 7.145-13.023 15.441C238.631 121.959 244.934 133.83 255.857 133.83zM186.956 93.498c1.364.104 2.627.209 3.991.209 1.261.105 2.626.105 3.887.105.945.0 3.361-.211 5.777-.42 2.414-.211 4.199-.211 5.67-.211 8.928.0 14.602 4.83 14.602 11.34.0 5.883-5.357 9.457-9.558 10.508 8.716 12.605 10.291 14.494 13.654 17.643.42.422 3.047 2.836 6.303 3.047l-.107 1.576c-7.246.0-10.818-2.834-12.707-4.307-6.409-5.041-12.709-15.02-13.866-17.119-1.785.0-2.521.0-5.566-.211v6.09c0 2.732-.105 8.826.736 10.506.523.943 3.675 1.891 5.776 2.52l.105 1.578c-2.521-.424-6.514-.736-9.243-.736-1.472.0-7.982.418-9.35.523l-.313-1.26c.63-.105 4.411-.945 5.356-2.73.734-1.574.629-10.4.629-13.232v-10.082c0-13.027-.629-13.238-5.881-13.549L186.956 93.498zm12.183 19.744c1.261.211 3.258.211 4.518.211 1.575.0 10.398.0 10.398-8.4.0-3.889-2.836-9.559-10.293-9.559-4.411.0-4.411.523-4.517 7.666L199.139 113.242zM157.758 92.865c13.444.0 21.741 10.715 21.741 21.637.0 12.08-10.503 22.057-22.371 22.057-12.289.0-21.112-9.977-21.112-22.057C136.016 102.949 146.205 92.865 157.758 92.865zM159.964 133.83c7.878.0 12.813-7.771 12.813-15.23.0-11.867-6.826-23.004-17.014-23.004-8.088.0-13.025 7.145-13.025 15.441C142.738 121.959 149.041 133.83 159.964 133.83zm-44.68-40.017h-8.992c-3.885.0-6.827.0-9.243-.105-2.206-.105-2.731-.631-3.045-1.051h-1.155c-.211.525-3.047 8.086-3.152 8.508l1.365.84c1.366-3.676 2.942-5.461 10.398-5.461.631.0 3.047.0 5.988.314.421 5.355.525 10.607.525 15.965.0 3.361-.104 15.947-.525 18.676-.21 1.264-.84 1.859-4.307 2.49-1.471.213-2.416.314-3.256.42l.315 1.701c1.125-.104 2.479-.178 4.145-.281 1.689-.104 3.732-.17 6.778-.17 1.156.0 3.046-.078 4.831.029 1.784.105 3.368.109 5.567.209l.21-1.756c-.423.0-1.039-.098-1.996-.227-1.176-.158-3.046-.521-3.782-1.258-1.364-1.576-1.364-12.902-1.364-15.947.0-2.625.42-15.859.42-18.904.0-1.262.42-1.262 4.202-1.262l.128.018c1.693-.059 2.165-.018 2.795-.018 7.459.0 7.667 1.785 9.031 5.461l1.366-.84c-.107-.422-1.574-7.982-1.783-8.508h-1.155c-.316.42-.841.945-3.047 1.051-2.87.125-6.268.105-9.699.105H115.284zM386.648 56.752c-2.717.275-3.35.275-6.371.275l-3.189-.047-3.291-.092-1.088.065-.852.088-.002.142v.656l.146.008c.83.043 1.605.123 1.947.623.484.734.535 1.494.535 8.107.0 3.121-.275 6.641-.371 7.158-.168.729-1.188.986-1.943 1.117l-.117.021-.07.994.182-.014c1.855-.141 3.875-.184 4.402-.184l1.631.047c.012.0 3.031.145 3.031.145l.004-.164v-.926l-.217-.02c-2.158-.205-2.881-.58-3.109-.859-.227-.275-.314-1.4-.314-2.586.0-.348.008-.699.02-1.037.0-.002.076-2.795.092-3.451.227-.012 1.541-.084 1.541-.084 1.686.0 3.799.383 4.348.631.297.096.551.699.662 1.537l.02.137h.936l.014-.146c.154-1.939.131-3.857.094-5.313l-.004-.154h-.988l-.021.131c-.227 1.373-.32 1.943-3.979 1.943-1.098.0-1.447-.041-2.496-.16.0.0-.039-.006-.08-.01-.023-.332-.037-.688-.037-1.074.0-.422.01-.871.021-1.332.0.0.057-3.891.066-4.494 1.059-.125 1.977-.17 2.244-.17 2.043.0 3.832.367 4.551.934.584.449.82 1.188.979 1.848l.029.129 1.043-.066-.016-.158c-.025-.301.037-1.328.098-2.234l.1-1.988L386.648 56.752zM358.16 56.614c6.18.0 9.877 4.902 9.877 9.644.0 5.328-4.652 9.83-10.162 9.83-5.379.0-9.594-4.318-9.594-9.83C348.281 61.119 352.898 56.614 358.16 56.614zM359.143 74.576c3.445.0 5.572-3.387 5.572-6.521.0-4.883-2.783-9.932-7.449-9.932-3.721.0-5.67 3.328-5.67 6.615C351.596 69.574 354.42 74.576 359.143 74.576zM323.061 57v.931l.215.01c.939.043 2.229.105 2.229.854.0.229-.398 1.326-3.941 6.465-1.525-1.838-4.904-6.18-4.904-6.74.0-.209.0-.445 2.146-.488l.152-.002v-1.097l-1.783.037-3.443.059-3.727-.049.002.16v.845h.154c.938.0 1.479.123 1.934.436 1.141.805 5.166 5.943 5.305 6.164.01.018 1.613 2.084 1.771 2.285.096 1.332.184 2.814.184 4.639.0 2.811.0 3.396-2.621 3.482l-.143.004-.068.943.156.01c.385.027 1.592-.063 2.754-.15l2.002-.125 1.518.074.307.018 2.049.102-.008-.166v-.787l-.141-.014c-2.568-.221-2.594-.553-2.633-1.053.0.012-.008-.195-.008-.195-.059-1.158-.09-2.445-.09-3.85.0-1.053.021-2.178.051-3.357.051-.076 3.688-5.625 3.688-5.625 1.174-1.799 1.82-2.787 4.334-2.834l.148-.002v-1.08l-.139-.012c-.33-.03-1.34.027-2.234.079l-1.207.058-1.432-.078-1.01-.061c.004.0-1.404-.047-1.404-.047l-.162-.004V57zM306.439 56.475h-.592l-.045.062c-.098.123-.27.354-1.248.398l-3.773.046h-5.275l-4.121-.046c-.975-.045-1.152-.275-1.246-.398l-.047-.062h-.699l-.041.098c-.076.192-1.359 3.546-1.414 3.748l-.025.115.871.523.063-.174c.59-1.559 1.227-2.293 4.504-2.293 1.045.0 1.93.064 2.527.125.197 2.543.227 4.994.227 6.855.0 1.783-.057 7.033-.232 8.162-.07.41-.193.676-1.797.961.004-.002-1.166.15-1.166.15l-.447.055.197 1.045 1.555-.105.436-.025 3.018-.074.482-.006 1.672.018 1.273.049 1.355.049.021-.143.113-.93-.848-.088-.195-.027c-.801-.104-1.383-.291-1.605-.51-.207-.232-.563-1.447-.563-6.877l.092-3.875.094-4.414c0-.373.0-.395 1.725-.395l.061.008 1.027-.01.221.002c3.039.0 3.271.637 3.793 2.029l.162.439.863-.521-.207-1c-.301-1.475-.553-2.708-.621-2.867l-.039-.098H306.439zm-31.373.57v.935l.15.004c2.455.092 2.857.594 3.055 1.1.34.828.414 6.156.414 8.141v.33c.002 1.617.008 5.402-.498 6.27-.164.289-.797.799-3.211.982l-.145.01v.953l2.973-.098h2.727l4.537.143-.018-.172-.053-.883h-.146c-1.984.0-2.623-.037-2.859-.811-.121-.412-.18-2.193-.18-5.295.0-7.324.041-9.258.447-9.965.498-.814 2.242-.711 2.762-.658l.172.018v-1.113h-2.221c-.01.0-3.145.092-3.145.092l-2.07-.061-.893-.031c.002.0-1.639-.047-1.639-.047l-.16-.004V57.045zm-16.627 5.021c0 3.199 2.727 4.316 4.719 5.135l.168.066c3.416 1.387 4.979 2.02 4.979 4.379.0 1.389-1.043 2.883-3.322 2.883-2.012.0-3.482-.857-4.363-1.578-1.061-.898-1.355-2.234-1.451-2.674l-.023-.123h-1.135l.061.201c.625 2.072.84 3.004.797 5.342l-.006.148.914.064.047-.105c.041-.107.201-.455.418-.455.221.0.871.168 1.148.238l.129.035c-.004.0.277.08.277.08.465.143 1.109.338 2.295.338 4.588.0 7.061-2.785 7.061-5.408.0-3.688-3.635-5.125-6.037-6.076-2.287-.879-4.014-1.691-4.014-3.549.0-1.836 1.41-3.068 3.508-3.068 1.879.0 3.225 1.053 3.545 1.42.762.705.951 1.533 1.131 2.336l.029.121.131.037h.832l-.252-2.459c0-.893.18-1.84.275-2.216l.041-.169-.84-.126s-.508.345-.6.408c-1.717-.452-2.576-.586-3.773-.586C261.189 56.706 258.439 58.91 258.439 62.066zM245.205 56.75c3.936.0 6.684 2.111 6.684 5.13.0 2.445-2.127 4.113-4.178 4.691 3.77 5.344 4.467 6.166 5.961 7.541.051.049 1.236 1.197 2.719 1.293l.158.008-.068.996h-.146c-3.26.0-4.879-1.236-5.775-1.922-2.861-2.209-5.66-6.553-6.191-7.48-.16-.004-1.971-.072-2.248-.08.0.285.0 2.508.0 2.508s-.002.682-.002.855c0 1.277.027 3.119.313 3.672.205.361 1.691.797 2.49 1.033l.104.031.066.998-.191-.031c-1.119-.186-2.885-.322-4.107-.322-.643.0-3.529.182-4.168.23l-.129.01-.217-.848.168-.027c.389-.063 1.916-.439 2.281-1.109.283-.592.271-3.895.266-5.305l-.002-.432V63.77c0-5.639-.234-5.65-2.484-5.785l-.154-.01.068-1.096.277.021s1.652.081 1.664.082l1.727.046c.418.0 1.512-.094 2.566-.186h-.002.002L245.205 56.75zM242.17 65.563c.553.074 1.359.076 1.863.076 1.676.0 4.492-.457 4.492-3.527.0-1.621-1.186-4.033-4.447-4.033-1.816.0-1.816.061-1.865 3.207C242.213 61.285 242.174 65.299 242.17 65.563zm-11.111-8.721c-2.305.137-5.938.186-8.35.186-1.463.0-5.127-.091-6.477-.139l-.16-.005v.938l.131.021c1.592.277 1.693.314 1.803.676.17.439.367 2.145.367 7.83.0 2.434-.182 6.273-.42 7.572-.121.637-.92.846-2.164.977l-.156.018.133 1.049.15-.018c2.529-.275 5.58-.275 7.404-.275l7.508.094.068-.113c.395-.625.988-1.572 1.406-4.582l.023-.166-.891-.068-.043.111c-.637 1.725-1.906 3.49-6.475 3.49-1.607.0-2.307-.213-3.199-.557-.086-.539-.172-1.314-.217-3.619.0.0-.035-2.803-.043-3.451 1.205-.162 2.316-.168 2.801-.168 3.672.0 3.951.289 4.451 2.551l.025.123h.893l-.002-.16c-.047-2.48-.045-3.066.094-5.654l.008-.166h-.988l-.029.117c-.361 1.379-.658 1.648-1.188 1.729-2.684.344-5.303.238-5.932.193-.008-.242-.09-2.48-.09-2.48.0-1.203.102-3.061.313-4.375.988-.184 2.832-.35 3.619-.35 2.078.0 3.301.27 3.844.85.453.48.455 1.18.414 1.979l-.006.146 1.07.131v-.178c0-.199.123-.949.215-1.496l.111-.693c.145-.977.145-1.449.145-1.908v-.166L231.059 56.842zM190.383 57.057l.056.82.127.016c2.527.314 2.627.328 4.67 4.52l4.228 8.613c-.001-.002.036.078.036.078.715 1.494 1.795 3.756 2.161 5.053l.03.115h.936l.035-.107c.638-1.873 1.102-3.172 2.574-6.104l4.557-8.936c1.051-2.105 1.502-2.639 3.553-3.051l.127-.025v-1.028l-.164.007c-1.165.047-2.297.047-3.463.0-.005.0-3.576-.096-3.576-.096l-.011.137-.059.972.165-.01c.941.0 2.195.117 2.195 1.133.0.561-.406 1.477-.672 2.082l-.07.158c-.932 2.098-1.521 3.25-2.145 4.473l-2.08 4.275s-.312.684-.489 1.07c-2.047-3.303-5.766-12.135-5.79-12.658.0-.223.053-.254 1.588-.445l.48-.059v-1.034l-2.876.011-1.553-.01c-1.083.0-3.272-.05-4.401-.137l-.182-.016L190.383 57.057zM177.703 57.045v.935l.151.004c2.457.092 2.854.594 3.054 1.1.339.828.412 6.156.412 8.141v.33c.004 1.617.011 5.402-.496 6.27-.163.289-.797.799-3.212.982l-.144.01v.953l2.974-.098h2.724l4.539.143-.017-.172-.056-.883h-.146c-1.982.0-2.621-.037-2.857-.811-.119-.412-.182-2.193-.182-5.295.0-7.326.046-9.258.449-9.965.5-.814 2.24-.711 2.764-.658l.169.018v-1.113h-2.222c-.008.0-3.146.092-3.146.092l-2.065-.061-.892-.031c.002.0-1.64-.047-1.64-.047l-.161-.004V57.045zM166.914 56.733l-.121.004-.006.118-.178.87.18.01c3.627.213 3.057.289 3.156 7.793.0.0.049 4.535.037 5.051-.254-.268-13.018-13.606-13.018-13.606l-.049-.06-2.09.048-1.395-.046-.117-.012-1.271-.092.021.178.006.906.119.021c2.609.486 3.044.773 2.949 6.105l-.045 3.27c0 1.217-.143 4.918-.283 5.967-.125 1.076-.537 1.158-1.218 1.291-.024.004-1.216.26-1.216.26l-.007.127v.855l4.382-.191 2.1.092c.012.002 1.468.102 1.468.102l.015-.166v-.914l-.131-.023c-3.584-.623-3.578-1.018-3.531-4.078l.094-7.783c0 .002.021-.668.035-1.105.707.73 13.608 14.105 13.535 14.139l.043.059 1.221-.023-.012-.178c-.093-1.514-.093-5.428-.093-7.135.0-2.539.113-8.453.243-9.184.163-1.266 1.248-1.566 2.29-1.566h.154v-1.005h-.154c-2.028.0-3.046.132-3.931.04l-.595-.067-1.39-.084L166.914 56.733zM132.78 56.917l-1.088.02c-1.279.0-3.86.045-4.244.094l-.146.016.066 1.033h.146c1.229.0 1.643.0 1.93.201.379.24.639 2.4.639 5.262l-.234 6.125c0 4.229 2.701 6.467 7.81 6.467 8.096.0 8.521-4.326 8.655-13.328l.048-2.717c0 .002.002-.115.002-.115.044-1.316.059-1.861 2.246-1.988l.137-.008.068-1.052-.417.026-3.272.077-2.52-.063-1.115-.035.004.162v.939h.154c.944.0 1.874.057 2.287.463.594.582.753 3.104.753 4.354v1.658c0 6.238-.419 10.023-6.231 10.023-5.293.0-5.293-4.219-5.293-6.244v-3.502c0-6.514.238-6.535 3.146-6.799l.141-.012v-1.076l-.148-.008C135.579 56.857 133.96 56.892 132.78 56.917z"/><g><g><g><path fill="#fff" d="M16.555 24.814c-.612.174-.987.636-1.145 1.248-.41-.027-.857.011-1.302.307-.451.301-.747.775-.854 1.373-.004.035-.039.406-.039.408.0.645.283 1.448 1.364 1.992-.024.122-.049.245-.049.245.0.348.109.861.627 1.328.252.226.529.363.821.461-.057.224-.145.575-.145.575l.123.69c.235.693.808 1.425 2.129 1.517.085.272.216.57.536.861.43.392 1.105.684 2.037.406-.089.25-.173.5-.173.754.0.447.139.876.413 1.276.809 1.182 2.211.608 3.094.191.42.504 1.026.754 1.777.602 1.211-.248 1.762-.998 2.096-1.717.084-.013.886-.144.886-.144l.148-.092c.478-.296.882-.953 1.251-1.847.868.769 1.579 1.851 1.667 2.075.145.369.515.984 1.485 2.533-.002-.004.709 1.172.905 1.496-.299 1.56-1.019 2.712-2.051 3.238l-.567.285c-1.409.707-2.97 1.517-3.958 2.251-.011.0-.037-.002-.039-.002-.724.0-1.167.162-1.482.309-.411-.166-.958-.342-1.536-.346-1.934-.014-2.786 1.061-3.121 1.701-.642 1.225-.417 2.699.121 3.465.689.979 1.737 1.494 3.031 1.494.503.0.958-.146 1.391-.344.392.156.849.307 1.371.307.535.0 1.018-.135 1.475-.32.415.188.856.357 1.32.357.471.0.889-.143 1.297-.332.363.148.778.295 1.266.295.688.0 1.121-.152 1.432-.291.399.174.822.328 1.27.328.471.0.888-.143 1.296-.332.363.148.777.295 1.263.295.681.0 1.111-.148 1.42-.285.396.172.815.322 1.262.322.471.0.889-.143 1.297-.332.363.148.778.295 1.266.295.683.0 1.114-.15 1.424-.287.397.172.817.324 1.265.324.471.0.888-.143 1.297-.332.364.148.779.295 1.266.295.721.0 1.168-.168 1.487-.32.417.172.971.354 1.56.357 1.465.01 2.588-.617 3.163-1.764.625-1.248.369-2.703-.189-3.439-.745-.98-1.727-1.457-3.003-1.457-.5.0-.942.139-1.373.332-.083-.023-.376-.111-.484-.143-.573-.844-1.452-1.257-3.441-2.092l-.3-.126c-2.074-.872-2.489-1.605-2.891-2.314l-.06-.106c-.119-.208-.43-1.41-.43-2.896.0-1.023.152-2.475.875-3.583.41-.627.929-1.115 1.507-1.515.174.585.372 1.061.61 1.313l.044.046.114.091.894.462-.102-.225c.389.916.934 1.872 2.023 2.018.395.053.739-.061 1.071-.209.379.321.862.641 1.528.611.61-.026.966-.266 1.235-.506 1.224.211 1.894-.312 2.231-.819l.348-1.015v-.06c0-.416-.15-.708-.322-.953.053-.014.138-.038.138-.038.323-.189.511-.409.651-.654.958-.07 1.421-.611 1.625-1.089.013-.038.055-.197.083-.302.035-.032.042-.038.083-.076.496.174 1.074.317 1.664.043.426-.198.7-.564.883-1.023.439.025.95-.019 1.443-.365.478-.337.781-.86.877-1.513.003-.029.028-.361.028-.362.0-.636-.302-1.686-1.949-2.22-.057-.44-.227-.854-.575-1.217-.801-.834-1.779-.671-2.478-.393.231-.164.405-.367.525-.604.923.194 2.48.424 3.17-.926.001-.003.171-.664.171-.667.0-.071-.077-.388-.14-.639.856-.653 1.077-1.402 1.077-1.939l-.237-1.062c-.428-.959-1.172-1.328-2.204-1.197-.052-.218-.125-.432-.283-.617-.02-.018-.061-.045-.095-.07.077-.292.174-.657.174-.657l-.172-.872c-.234-.59-.629-.989-1.132-1.189-.426-.169-.919-.151-1.454-.04.446-.412.753-.835.841-1.267.006-.04.036-.34.036-.34.0-.003.0-.006.0-.008.0-.481-.16-.91-.461-1.275-.621-.753-1.496-.976-2.578-.722-.21-.244-.494-.495-1.033-.626-.934-.227-1.686.331-2.186.754-.164-.107-.46-.301-.46-.301l-.111.003s-.143.019-.257.034c-.037-.541-.229-1.012-.637-1.425-.534-.542-1.139-.811-1.797-.8C47.569 9.74 47.334 9.799 47.1 9.882c.262-.389.441-.769.441-1.138l-.196-.8c-.332-.625-.691-.876-1.02-1.041.0-.002.001-.018.001-.018.0-1.692-1.117-2.146-1.597-2.264-.86-.212-1.652.116-2.372.887-.164-.071-.33-.135-.516-.161-.393-.419-.85-.684-1.373-.752-1.451-.189-2.026 1.128-2.302 1.935-.291-.016-.627.021-1 .238.0.0-.248.251-.45.457-.115-.059-.137-.071-.234-.121-.224-1.436-.963-1.915-1.409-2.054-.395-.123-.752-.113-1.096-.03-1.175-1.238-2.206-1.208-2.87-.901-.7.323-1.101.978-1.101 1.797.0.0.13.648.2 1-.203.128-.371.291-.503.488-.713-.188-1.439-.091-2.074.354-.591.416-.917 1.05-.917 1.786.0.561.177 1.034.37 1.454-.357.335-.596.699-.644 1.126-.002.022-.016.261-.016.261.0.012.067.273.132.526-.55.076-1.055.296-1.475.749-.29.313-.434.67-.496 1.048-.342-.936-.917-1.445-1.745-1.463-.434-.009-.792.189-1.117.506-.714-.507-1.372-.465-1.815-.279-.491.207-1.314.76-1.314 2.152.002.031.048.409.079.661-.289.18-.559.427-.738.819-.007.013-.022.029-.029.044-.011.027-.033.038-.043.065.0.0.027-.019.033-.023-.049.122-.085.283-.14.587.0.007.0.014.0.02.0.404.157.76.385 1.1-.002.0-.031.005-.031.005-.242.09-.773.391-1.025 1.105-.736.075-1.345.454-1.693 1.18-.027.076-.262 1.039-.262 1.039l-.022.089.23.936c.231.458.627.789 1.143 1.079-.013.03.098.089.129.245S16.555 24.814 16.555 24.814zM17.445 24l-.334-.154c-.556-.256-.908-.536-1.076-.856.0.0-.123-.532-.155-.672.035-.148.226-.966.226-.966l-.037.162c.268-.558.7-.832 1.283-.814l.312.009.066-.305c.118-.547.489-.739.642-.796l1.211-.208-.518-.521c-.378-.347-.563-.684-.563-1.03.006-.007.083-.433.083-.433.103-.269.342-.449.664-.62l.229-.121-.135-1.094c.003-.685.291-1.177.858-1.415.448-.188.862-.083 1.304.33l.309.289.25-.341c.231-.315.466-.453.763-.446.38.008.918.161 1.204 1.394l.105.295s.382-.155.554-.14.516.297.516.297l.204-.258-.125-.578-.012-.03c.005-.271.121-.548.361-.807.393-.423.826-.605 1.362-.572l.523.032-.234-.553s-.109-.669-.109-.67c0-.002.014-.241.014-.241.032-.264.21-.528.559-.789L28 11.19l-.14-.28c-.195-.388-.394-.854-.394-1.364.0-.499.201-.894.598-1.172.362-.254.946-.497 1.67-.211l.333.131.147-.326c.111-.249.292-.422.554-.531l.286-.12-.076-.349-.218-1.049c0-.369.115-.862.666-1.117.686-.316 1.395-.035 2.167.86l.173.201.247-.096c.254-.098.522-.097.843.002.506.158.837.732.932 1.618L35.806 7.6l.268.112.23.104.359.333.17.057.291-.364.42-.424c.287-.167.532-.167.812-.117l.323.059.101-.313c.354-1.103.761-1.815 1.593-1.707.378.049.703.237.993.573l.104.121.159.009c.237.013.446.077.622.19l.28.18.212-.257c.584-.709 1.159-.965 1.809-.805.469.115 1.026.47 1.027 1.509-.001.003-.037.5-.037.5l.26.1c.287.11.588.278.852.761l.15.62c-.012.255-.248.67-.712 1.138l-.137.137.054.222.178 1.026.496-.398c.398-.32.761-.473 1.142-.479.444-.007.865.187 1.25.576.308.313.452.644.452 1.042L49.4 12.664l.578.072.375-.074c-.037-.035.528.335.528.335l.238.156.214-.188c.513-.451 1.114-.918 1.746-.766.43.105.625.309.771.514l.156.217.256-.076c.911-.271 1.554-.131 2.027.442.191.231.292.498.292.769-.002.004-.03.303-.03.303-.059.254-.322.604-.772.968l-.178.144.24 1.158.4-.135c.559-.187 1.013-.205 1.389-.056.312.124.559.376.695.709l.145.73c-.008-.076-.19.575-.19.575l-.074.264.204.217.231.152c.035.063.073.288.105.524l.056.409.401-.094c.906-.213 1.401-.022 1.71.658l.204.907c-.01.502-.319.987-.954 1.398l-.232.15.102.335s.145.514.147.523c-.011.009-.126.488-.126.488-.419.8-1.542.634-2.559.409l-.342-.076-.137.383c-.094.321-.322.533-.74.69l-.338.127.139.4s.089.269.095.287c-.009.016-.039.211-.039.211L56.015 27.6l.676-.393c1.067-.619 1.776-.651 2.3-.106.281.293.417.604.417.949v.289l.276.089c1.062.279 1.622.821 1.623 1.566-.001.003-.025.333-.025.333-.062.39-.258.739-.563.955-.383.269-.818.26-1.192.215l-.33-.039-.079.323c-.102.42-.29.673-.609.821-.419.194-.9.051-1.315-.115l-.214-.086-.224.208-.317.28-.06.136-.091.351c-.178.405-.543.614-1.134.606l-.262-.003-.094.244c-.075.194-.195.337-.372.45-.045.001-.446.111-.446.111l-.211.058-.133.514.131.21c.192.189.363.417.376.751-.045.137-.258.784-.258.784-.167.227-.567.623-1.584.39l-.205-.046-.147.15c-.195.2-.439.387-.895.407-.478.021-.838-.247-1.157-.539l-.216-.197-.244.162c-.247.163-.525.222-.85.179-.713-.095-1.11-.81-1.432-1.567l-.053-.125-.191-.023-.894-.462c-.057-.091-.311-.445-.542-1.48l-.11-.492-.44.248c-.848.478-1.594 1.185-2.156 2.045-.824 1.262-.997 2.868-.997 3.993.0 1.531.307 2.88.528 3.267l.059.104c.42.742.942 1.665 3.252 2.637l.3.126c2.029.852 2.753 1.184 3.197 1.92l.075.125.953.283.135-.07c.377-.201.779-.297 1.229-.297 1.04.0 1.805.369 2.406 1.16.418.553.581 1.723.116 2.65-.44.879-1.323 1.357-2.487 1.35-.412-.002-.916-.127-1.42-.35l-.167-.074-.162.086c-.262.141-.646.301-1.303.301-.393.0-.765-.143-1.083-.275l-.168-.07-.159.09c-.356.197-.733.293-1.153.293-.36.0-.744-.152-1.105-.316l-.162-.074-.16.08c-.238.117-.626.273-1.262.273-.394.0-.765-.143-1.083-.275l-.168-.07-.159.09c-.356.197-.733.293-1.154.293-.359.0-.743-.15-1.103-.314l-.162-.074-.16.08c-.236.115-.625.271-1.258.271-.354.0-.675-.105-1.08-.275l-.168-.07-.159.09c-.356.197-.733.293-1.153.293-.36.0-.747-.154-1.11-.32l-.164-.074-.161.08c-.237.119-.626.277-1.267.277-.394.0-.765-.143-1.083-.275l-.168-.07-.159.09c-.356.197-.733.293-1.154.293-.357.0-.745-.16-1.111-.332l-.162-.076-.161.078c-.411.197-.856.293-1.361.293-.434.0-.829-.137-1.19-.285l-.165-.068-.157.084c-.378.207-.787.307-1.249.307-1.04.0-1.875-.406-2.417-1.176-.407-.578-.549-1.771-.07-2.686.256-.49.916-1.309 2.452-1.299.404.002.9.123 1.398.338l.164.072.158-.082c.26-.137.641-.291 1.283-.291l.28.02.112-.088c1.001-.775 2.926-1.742 3.96-2.261l.569-.286c1.278-.651 2.159-2.037 2.483-3.903l.024-.138-1.062-1.755c-.886-1.416-1.301-2.098-1.425-2.413-.168-.432-1.175-1.921-2.275-2.719l-.41-.296-.165.478c-.445 1.288-.877 1.77-1.162 1.946.0.0-.38.066-.606.105-.077-.085-.357-.395-.357-.395l-.222.563c-.273.696-.667 1.37-1.699 1.581-.391.08-.92.061-1.216-.488l-.17-.315-.349.167c-.98.472-1.899.838-2.366.155-.187-.273-.282-.56-.282-.853.0-.461.224-.921.685-1.406L21.43 35.01c-.97.7-1.723.783-2.303.254-.263-.239-.345-.489-.394-.724l-.063-.3-.307.002c-.912.008-1.446-.307-1.682-.99.0.0-.062-.361-.082-.478.024-.098.089-.371.119-.496.048-.037.75-.574.75-.574l-.898-.146c-.345-.027-.634-.155-.91-.402-.251-.226-.378-.485-.378-.77l.138-.607-.282-.179c-.789-.311-1.173-.776-1.173-1.422.002-.003.034-.371.034-.371.064-.325.249-.63.526-.815.341-.227.717-.214 1.073-.166l.402.055.023-.405c.021-.377.176-.855.792-.989.002.0.696-.07.696-.07l.21-.042-.234-.219s-.256-.54-.245-.661S17.445 24 17.445 24z"/></g></g><path fill="#fff" d="M33.847 51.331c.361.504.966.818 1.58.818.696.0.944-.285.955-.297.125-.148.357-.178.51-.057.016.014.408.316 1.095.316.336.0.568-.055.742-.115-.08-.086-.169-.164-.238-.26L36.958 49.5c-.359-.504-.962-.816-1.576-.816-.696.0-.945.283-.955.297-.126.146-.356.176-.509.057-.017-.014-.412-.316-1.1-.316-.334.0-.566.055-.74.113.076.082.161.154.226.246L33.847 51.331z"/><path fill="#fff" d="M22.883 51.333c-.229-.326-.345-1.17-.013-1.805.296-.564.866-.85 1.695-.844.643.004 1.525.311 1.888.816l1.532 2.236c.07.098.186.145.268.232-.195.07-.475.143-.885.143-.759.0-1.207-.322-1.211-.324-.149-.109-.366-.082-.491.055-.012.012-.288.307-1.059.307C23.822 52.149 23.274 51.889 22.883 51.333z"/><path fill="#fff" d="M31.381 18.088c.307-.231.71-.504 1.206-.784.585-.331 1.215-.571 1.667-.714-.628-1.193-1.437-1.248-1.844-1.268l-.403-.101c-.055-.014-.063-.051-.106-.088-.121-.104-.403-.349-.55-.29-.05.079.004.401.024.522.0.0.028.413.028.415l-.114.263C31.117 16.349 30.785 16.96 31.381 18.088z"/><path fill="#fff" d="M39.265 15.089c.003-.004.006-.007.009-.011-.024-.02-.049-.039-.068-.062L39.265 15.089z"/><path fill="#fff" d="M24.101 22.646l-.122.319-.613.277c-.083.063-.188.093-.297.067-.001.0-.002-.001-.004-.002-.338.079-.591.198-.664.499-.096.401.204.631.577.87.0.0.377.404.382.428.015.068.032.159.044.258.386-.089.856-.082 1.408.135.1-.062.202-.122.318-.147.587-.127 1.164.228 1.53.479.133-.273.354-.667.791-.564.617.143 1.005.586 1.265 1.135.108-.144.207-.305.361-.364-.004-.047-.013-.093-.013-.142.0-.23.047-.456.15-.585.0.0.217-.208.255-.244-.002-.002-.013-.014-.013-.014-.167-.165-.396-.407-.561-.7-.679.304-1.899.529-2.714.177-.496-.214-.78-.61-.859-1.135-.467-.287-.8-.682-1.021-1.119C24.214 22.31 24.166 22.407 24.101 22.646z"/><path fill="#fff" d="M22.246 26.686c-.243-.003-.454.009-.576.204-.119.188-.05.363.052.572.009.019.055.115.061.135l.114.391.313.842c.253.47.798.846 1.103 1.006l1.335-2.233c-.224-.235-.458-.564-.458-.991.0-.161.049-.338.13-.522-.79-.213-1.284.18-1.563.405.0.0-.236.158-.238.159L22.246 26.686z"/><path fill="#fff" d="M44.571 23.855c.035-.031.061-.055.061-.055.474-.452 1.085-1.027 1.654-1.095-.263-.431-.385-.911-.41-1.371-.223.48-.812.85-1.271 1.105.103.092.216.171.258.366.016.076.024.152.024.228.0.244-.083.493-.249.742C44.621 23.804 44.591 23.829 44.571 23.855z"/><path fill="#fff" d="M50.351 25.593c0-.015-.02-.042-.047-.117.0.0.026.072.043.119L50.351 25.593z"/><path fill="#fff" d="M47.352 25.23c.085.209-1.09.736-1.969 1.025-.401.132-.841.334-1.199.514-.008.006-.011.016-.02.021-.297.191-.591.513-.875.908.428.243 1.691.524 1.953.479l.043-.187c.029-.183.073-.459.343-.582l.648.048c.492.134 1.236.335 1.723-.02l-.104-.141-.216-.525c-.043-.108-.111-.111-.05-.209.062-.099.089-.043.205-.051l.668-.046c.301.045.546.064.749.052.056-.026.117-.034.181-.026.166-.038.288-.111.333-.254l-.06-.294-.126-.464c0-.308.27-.443.53-.575.534-.271.763-.451.562-.939-.083-.202-.771-.057-1.064.004.0.0-.729.013-.731.013l-.298-.39c-.052-.13-.081-.202-.251-.268-.133-.052-.524.208-.69.319-.291.194-.521.346-.777.236l-.344-.345L46.42 23.42c-.103-.051-.409.064-1.289.904l-.661.475c-.062.008-.31-.026-.447-.306-.381.063-.856 1.069-1.119 1.909.478-.19 1.543-.601 2.253-.834C46.052 25.274 47.266 25.021 47.352 25.23z"/><path fill="#fff" d="M25.315 20.025l-.297.059-.33.016s-.151.023-.167-.025c.008.027.036.117.036.117l.096.456c0 .012.0.024.0.037.0.747.299 1.684 1.127 2.141.01.004.018.011.027.016.022-.001.15-.02.414-.286.667-.674 1.284-1.997 1.343-2.444C26.535 19.777 25.742 19.925 25.315 20.025z"/><path fill="#fff" d="M56.989 19.569c-.081.054-.178.121-.268.185.298.163.643.463.643 1.083.0.043-.001.087-.005.133-.077 1.017-1.629 1.071-2.625 1.065.116.201.219.425.219.675.0.11-.02.222-.067.333-.49 1.165-2.478 1.102-3.436 1.053.009.063.02.126.02.184.0.138-.03.259-.071.371.25.043.467.128.59.241.043.04.065.088.092.135.995-.093 1.779-.017 2.339.223.146-.205.408-.186.691-.154.613.069 1.009.056 1.092-.223l.005-.196c-.014-.177-.038-.473.266-.713.248-.196.617-.115 1.177.008.593.13 1.489.327 1.675-.038.034-.067-.101-.275-.182-.399-.147-.225-.33-.509-.203-.809l.417-.338c.758-.386 1.105-.73.782-1.443-.153-.337-.445-.314-1.084-.129-.372.108-.882.256-1.068-.201l-.035-.587c.024-.217.035-.366-.037-.45-.042-.05-.201-.157-.646-.199C57.172 19.446 57.076 19.511 56.989 19.569z"/><path fill="#fff" d="M45.583 20.342c.125.131.261.274.324.34.052-.327.15-.625.288-.853.516-.858 1.514-1.152 1.845-1.063.615-.35 1.273-.492 1.966-.408.138-.273.499-.907 1.018-1.205.009-.112-.022-.328-.336-.575-.353-.279-.761-.079-1.299.234-.322.188-.601.35-.882.271.0.0-.322-.263-.368-.352-.078-.151-.293-.556-.489-.705-.159.09-.311.181-.496.27.087.142.171.318.171.561.0.104-.016.216-.055.336-.144.442-.558.77-.85.957.068.19.114.38.114.568C46.534 19.277 46.187 19.819 45.583 20.342z"/><path fill="#fff" d="M42.749 16.592c.138-.974-.171-1.638-.314-1.925l-.061-.192c-.05-.197-.088-.312-.283-.375-.163-.053-.394.097-.547.195.0.0-.217.121-.237.128-.395.145-1.27.556-1.618 1.415 1.173.076 2.733.574 3.013.716C42.721 16.564 42.733 16.581 42.749 16.592z"/><path fill="#fff" d="M51.28 19.012c-.011.003-.247.079-.247.079l-.49.096c-.056.011-.058-.013-.112-.029-.29-.083-1.148-.317-2.115.271-.055 1.48.877 2.104 1.955 2.52.707-.588.827-1.292.827-1.772.0-.138-.009-.256-.017-.349l-.006-.207.092-.324C51.167 19.297 51.241 19.019 51.28 19.012z"/><path fill="#fff" d="M43.496 29.018c.204-.096.294-.146.314-.373-.341-.095-.655-.214-.894-.353-.231.408-.452.855-.644 1.37-.276.741-.319 1.66-.357 2.471-.005.113-.015.205-.021.313.268-.334.581-.707.908-1.067-.306-.487-.425-1.304.043-1.89L43.496 29.018z"/><path fill="#fff" d="M48.917 27.897c.218-.158.374-.281.384-.429.001-.02.002-.039.002-.057.0-.078-.013-.134-.029-.174-.231.009-.462-.011-.657-.038.026.074.103.158.103.227.0.171-.079.327-.236.467-.782.699-1.832.414-2.396.26.0.0-.047-.012-.094-.026-.032.203-.09.52-.408.679-.17.085-.593.074-1.073-.003-.082.52-.379.714-.711.87l-.392.269c-.219.273-.169.629-.073.88.348-.342.695-.641 1.015-.841.014-.01.587-.365 1.073-.6.147-.071 1.117-.455 1.253-.213s-.814.805-.938.864c-.411.2-.645.364-.766.555-.212.422-.444.911-.614 1.302.301-.064.679-.107 1.125-.07l.504-.144c.283-.053.872-.163 1.017-.28.0.0.105-.116.108-.115l-.154-.21c-.08-.089-.25-.28-.25-.497.0-.097.034-.199.126-.299l.746-.235c.792-.093 1.229-.222 1.27-.639.002-.025.004-.048.004-.069.0-.168-.072-.248-.168-.353-.083-.091-.223-.244-.223-.454.0-.058.011-.121.037-.188L48.917 27.897z"/><path fill="#fff" d="M55.057 17.236c-.078-.244-.135-.357-.269-.381-.494-.087-.88.329-1.299.841-.276.338-.515.63-.862.533l-.466-.271c-.241-.186-.402-.297-.655-.232-.245.063-.499.379-.685.671.244-.099.633-.228.944.085.351.352.173.819.078 1.07.0.0-.048.139-.041.218.013.172.036.477-.012.844.689-.444 1.946-1.325 2.131-1.234.207.101-.884 1.329-1.964 1.985-.231.141-.468.285-.543.342-.151.26-.365.516-.647.758.031.222-.044.458-.144.694.184.029.351.096.487.214l.264-.009c.627.033 2.533.134 2.846-.606.063-.151-.184-.5-.289-.648-.131-.188-.247-.347-.162-.559.101-.251.305-.25.752-.245 1.814.021 2.105-.238 2.117-.395.032-.421-.184-.528-.493-.633l-.35-.251c-.13-.094-.069-.141-.016-.292.108-.305.433-.521.809-.771.103-.068.198-.134.29-.199.04-.046.086-.085.144-.107.472-.359.719-.693.518-1.186-.066-.163-.159-.216-.222-.241-.384-.152-1.111.179-1.422.32.0.0-.441.124-.444.124C55.186 17.64 55.108 17.397 55.057 17.236z"/><path fill="#fff" d="M54.616 26.266c-.353-.472-1.272-.648-2.593-.508-.095.377-.201 1-.099 1.822.073.586.339 1.006.573 1.376.033.053.063.103.095.154 1.635-.306 1.927-1.188 2.063-1.625l.126-.297.322-.283s.227-.195.229-.189c-.032-.064-.257-.161-.341-.197C54.992 26.52 54.647 26.307 54.616 26.266z"/><path fill="#fff" d="M41.4 27.087c.103-.047.215-.099.215-.099.133-.066.287-.14.444-.215.062-.263.209-.83.447-1.403-.511.254-.979.445-1.241.535.073.282.105.649.13 1.118C41.396 27.022 41.399 27.071 41.4 27.087z"/><path fill="#fff" d="M44.143 22.921l-.146-.033-.423-.215c-.107-.055-.17-.01-.185-.129-.014-.12.042-.089.134-.168l.525-.451c.317-.172 1.282-.695 1.195-1.02l-.214-.15s-.31-.325-.309-.32c-.062-.244.115-.38.256-.49.551-.426 1.067-.959.792-1.603l-.257-.033s-.513-.117-.515-.117c-.232-.139-.252-.406-.278-.744-.016-.212-.049-.655-.174-.723-.02-.008-.218-.063-.958.592l-.185.142c-.208.103-.392-.006-.48-.059l-.185-.071c-.442.0-.591 1.045-.64 1.388.0.0-.15.447-.151.448-.161.16-.369.153-.618-.019.0.0-.132-.075-.132-.083-.231.083-.382.209-.462.388-.054.121-.076.26-.076.409.0.492.242 1.083.375 1.406.062.15.128.312.128.454.0.125-.052.237-.204.313l-.282.059c-.114.005-.184.008-.28.118-.115.13-.163.321-.163.544.0.509.251 1.186.523 1.728.062-.203.126-.41.19-.625.213-.709 1.428-2.87 1.736-2.749s-.968 2.321-1.158 2.957c-.116.386-.203.744-.266 1.084C42.188 24.789 44.315 23.694 44.143 22.921z"/><path fill="#fff" d="M32.44 25.292c0-.437.31-.799.543-1.018-.14-.263-.263-.573-.263-.914.0-.346.129-.693.465-.979-.249-.233-.51-.167-.831-.026-.164.071-.387.169-.586.003-.05-.042-.087-.097-.109-.158-.146-.413-.487-1.053-.79-1.186l-.163-.002c-.605.261-.62.913-.583 1.559.017.295.029.509-.144.659l-.312.169c-.16.062-.2.088-.217.14-.113.337.18.664.517.997.198.195.369.364.314.609.0.0-.42.546-.47.565-.026.072-.036.325.016.437.022.048.031.098.032.147.36.359.681.988.804 1.726.039-.018.059-.057.101-.069l.538.066c.064.037.12.089.176.141-.066-.292-.132-.626-.176-.999-.188-1.586-.081-2.11.125-2.179.207-.068.285.529.551 2.178.144.893.371 1.641.433 1.843.139.062.285.152.438.29.304-.203.972-.735 1.021-1.193l.007-.244c0-.011.006-.02.007-.031-.055-.192-.086-.368-.086-.519.0-.333.116-.555.251-.738C33.45 26.46 32.44 26.251 32.44 25.292z"/><path fill="#fff" d="M36.504 37.18c.03-.144.059-.36.059-.716.0-.538-.063-1.363-.282-2.61-.494-2.821-1.993-3.255-2.713-3.463.0.0-.042-.013-.08-.024.167.479.296 1.052.296 1.861.0.084-.005.328-.005.363C33.778 34.833 35.781 36.638 36.504 37.18z"/><path fill="#fff" d="M28.703 29.424c.458.353.929.677 1.318.917.032.02.061.039.092.058.01.005.022.0.032.007.572.392 1.191.614 1.319.54l.024-.192c-.062-1.456-.384-2.016-.526-2.107-.062.013-.203.167-.279.306-.082.148-.254.22-.416.174s-.271-.197-.263-.366c.052-1.022-.456-1.868-.665-2.054-.088.049-.251.359-.336.637-.05.167-.213.274-.386.255-.173-.02-.309-.159-.321-.333-.028-.384-.201-1.029-.913-1.254-.043.078-.119.211-.119.211-.088.187-.273.577-.646.429l-.206-.127c-.211-.149-.772-.545-1.129-.468-.066.015-.166.053-.262.218-.236.405-.075.651.376 1.051l.345.531c0 .31-.275.454-.457.55-.115.06-.271.143-.271.206.0.309.21.435.867.521l.538.206c.257.322-.065.625-.239.787.0.0-.231.252-.236.155.175.483.647.641 1.17.695.024.003.053.003.076.007.002.0.004.002.006.002.168.013.34.019.509.02.326.001.663.003.72.348l-.228.595s-.132.223-.185.229c.257.407 1.2.377 2.545-.075-.045-.201-.396-.671-.814-1.08-.035-.022-.068-.043-.103-.065-.392-.242-.864-.565-1.329-.921.0.0-1.092-.948-.931-1.199C27.541 28.584 28.703 29.424 28.703 29.424z"/><path fill="#fff" d="M37.035 29.211c-.014-.006-.021-.013-.035-.018.031.643.173 1.513.742 2.464.0.0 1.115 1.865 1.167 1.953.2-.686.458-1.725.479-2.158.007-.138.012-.298.012-.476.0-.465-.045-1.042-.169-1.615l-.175.03C38.354 29.514 37.966 29.582 37.035 29.211z"/><path fill="#fff" d="M40.32 21.42c-.163-.402-.385-.977-.385-1.558.0-.221.039-.438.12-.644-.037-.178-.168-.558-.458-.693-.059-.028-.111-.013-.326.245-.158.189-.374.448-.704.354l-.527-.509c-.466-.628-.972-1.229-1.566-1.091-.467.108-.516.667-.446 1.531.032.393.055.676-.319.853-.224.082-.457.193-.484.406-.061.465.238.755.522.989.039.032.078.067.115.104.688.166 1.309 1.051 1.608 1.678.329-.221.905-.59 1.374-.199.5.417.756 1.519.827 2.063l.008-.001c.127-.023.308-.052.487-.037-.282-.542-.653-1.401-.653-2.161.0-.383.094-.74.341-1.02C40.011 21.549 40.174 21.465 40.32 21.42z"/><path fill="#fff" d="M39.663 27.758c.368-1.338.448-2.042.456-2.13l-.312.031c-.221.04-.471.085-.664-.076-.083-.069-.165-.259-.165-.366.0-.348-.291-1.52-.6-1.777-.097-.031-.43.192-.539.265-.234.158-.42.282-.645.205-.107-.037-.219-.152-.254-.259-.238-.712-1.021-1.627-1.33-1.555-.345.081-.356.563-.356.584-.002.151-.1.285-.243.335-.143.051-.303.006-.4-.11-.084-.101-.399-.399-.923-.011-.557.412.015 1.216.04 1.25.056.08.079.176.063.271-.016.095-.068.181-.146.237-.194.139-.482.438-.482.639.0.324.396.457 1.08.578.371.065.69.122.745.445.042.253-.126.417-.238.525-.167.162-.338.329-.151.872.089.257.218.314.26.333.328.144.919-.111 1.273-.264l.667-.145c.107-.023.127-.068.212.002s.042.104.04.214c0 0-.006.423-.035.512l.287.174c.74.295.964.255 1.627.139l.092-.016c-.045-.118-.081-.241-.137-.353-.02-.039-.036-.079-.055-.119-.199-.39-.525-.917-1.008-1.347-.701-.619-1.688-1.287-1.586-1.487.103-.198 1.216.429 2.042 1.045.483.362.834.773.908.871C39.353 27.494 39.525 27.649 39.663 27.758z"/><path fill="#fff" d="M39.361 48.317c.037-.025.084-.053.129-.08-.025-.254-.106-.631-.323-.852-.126-.129-.29-.191-.5-.191-.498.0-.832.439-1.034.832.133-.016.276-.027.436-.027C38.676 47.999 39.105 48.176 39.361 48.317z"/><path fill="#fff" d="M47.525 49.502c-.362-.506-.967-.818-1.58-.818-.696.0-.945.283-.955.297-.126.146-.356.176-.509.057-.017-.014-.412-.316-1.1-.316-.365.0-.618.063-.793.129.071.078.15.145.211.23l1.542 2.25c.361.504.966.818 1.58.818.696.0.944-.285.954-.297.125-.148.356-.178.51-.057.016.012.412.316 1.099.316.375.0.636-.066.812-.135-.076-.076-.167-.141-.229-.225C49.067 51.752 47.516 49.487 47.525 49.502z"/><path fill="#fff" d="M32.588 48.014c.077-.006.146-.016.231-.016.607.0 1.037.18 1.292.318.139-.1.347-.205.626-.275-.009-.131-.013-.27-.01-.42C34.237 47.565 33.259 47.53 32.588 48.014z"/><path fill="#fff" d="M24.721 35.296c-.041-.191.754-.881 1.144-1.174.659-.497 1.132-.848 2.019-1.118-.224-.113-.401-.274-.522-.492-.049-.088-.069-.177-.069-.266.0-.188.094-.364.196-.526-.133-.002-.285-.011-.443-.025-.132-.019-.321.0-.446.122l.189.43c.116.2.206.357.137.551-.035.098-.125.191-.222.23-.169.067-.294-.002-.453-.089-.315-.173-1.154-.638-1.735-.329.0.0-.092.065-.13.067.027.03.176.196.176.196.081.076.282.264.282.481.0.083-.029.17-.106.257-.173.197-.414.158-.646.121-.435-.069-.82-.091-1.134.34-.279.385-.17.522.011.749.116.146.33.416.155.723l-.317.349c-.612.574-.905.996-.593 1.454.183.103.998-.289 1.304-.436.0.0.823-.312.823-.313.547-.038.674.447.729.653.073.275.076.292.382.229.753-.154.957-.706 1.173-1.291.143-.388.279-.754.579-.989.179-.14.343-.138.45-.112.261.063.373.303.462.496.0.0.017.032.029.055.284-.281.665-1.106.931-2.064.011-.039.031-.072.053-.104-.402.085-.907.214-1.193.331C26.996 34.185 24.762 35.488 24.721 35.296z"/><path fill="#fff" d="M23.751 32.973c-.046-.092-.103-.181-.103-.293.0-.027.001-.055.005-.083.025-.19.16-.35.35-.493-.298-.113-.51-.269-.633-.388-.382-.37-.536-.876-.406-1.248-.218-.116-.533-.328-.845-.622-.016-.009-.037-.002-.052-.015-.324-.256-.888-.16-1.134-.013-.05.078-.036.395-.028.564.018.382.036.778-.249.986-.312.229-.645.003-.967-.215-.428-.289-.771-.494-1.021-.345l.052.407-.028.804-.613.333c-.229.065-.542.155-.62.305-.044.085-.014.22.02.318.135.391.466.444 1.112.411.0.0.703.143.706.143l.208.583c.025.242.05.398.19.525.42.383 1.316-.357 1.654-.636l.493-.241c.115-.056.146.078.253.148l.097.064c.047-.104.092-.208.177-.325C22.798 33.063 23.33 32.962 23.751 32.973z"/><path fill="#fff" d="M59.001 29.113s-.354-.083-.355-.083c-.24-.12-.293-.348-.159-.68.084-.208.157-.386-.108-.662-.346-.36-1.285.234-1.686.488-.312.197-.471.299-.68.209-.201-.087-.253-.279-.303-.465-.063-.233-.125-.353-.217-.404-.033.025-.107.081-.11.072-.002.008-.037.112-.037.112-.088.282-.271.822-.803 1.303 1.006.095 2.487.388 2.482.646-.006.331-2.513-.103-3.175-.061-.143.009-.268.028-.403.041-.174.062-.369.112-.578.157.069.175.194.368.235.386l.452-.073c.489-.103 1.098-.232 1.485.081.395.32.507.625.507.879.0.222-.085.405-.142.526.0.0-.009.023-.016.039.163.071.49.215.709.484.037-.053.065-.138.096-.273.0.0.152-.34.154-.341.209-.208.455-.097.795.057.244.111.816.37 1.007.281.138-.064.173-.305.203-.589.025-.247.05-.48.251-.615l.608-.021c.288.057.771.154 1.018-.02.114-.08.184-.223.216-.438C60.532 29.575 60.126 29.285 59.001 29.113z"/><path fill="#fff" d="M20.098 30.555s.051.031.084.051c.001-.094.003-.191.003-.191-.004-.096-.009-.197-.009-.298.0-.337.056-.68.333-.873-.151-.031-.303-.057-.452-.078-.629-.088-2.622-.092-2.616-.365.008-.308 2.242-.417 2.988-.301.332.052.664.14.987.25l-.22-.586s-.092-.319-.123-.384c-.019-.038-.043-.095-.066-.149-.011-.012-.026-.021-.036-.035-.472-.689-1.073-1.212-1.341-1.165-.155.028-.197.11-.262.381-.041.17-.109.456-.401.514-.232.047-.402-.099-.682-.34-.329-.284-.88-.758-1.291-.668-.141.031-.205.044-.116.576.047.282.112.668-.221.846l-.735-.013c-.306-.068-.726-.161-.928-.027-.031.021-.124.083-.167.325-.093.521.348.746 1.14.959.0.0.53.25.531.25.217.278-.006.563-.139.734-.299.383-.259.445-.131.559.428.384.796.187 1.271-.133l.519-.24c.136-.006.236.012.323.037C19.011 29.828 19.687 30.277 20.098 30.555z"/><path fill="#fff" d="M45.365 32.527c-.85-.073-1.375.191-1.407.209-.122.066-.272.058-.385-.023-.096-.069-.152-.179-.152-.294.0-.021.002-.041.005-.062.034-.194.182-.553.349-.928-.843.85-1.742 1.995-2.135 2.544-.106.148-.306.194-.466.108-.12-.065-.19-.189-.19-.318.0-.044.008-.088.024-.131.128-.33.156-.915.185-1.534.041-.863.086-1.842.402-2.689.323-.868.716-1.565 1.138-2.144-.283.126-.571.259-.797.371-.656.323-.901.444-1.119.182l-.143-.759c-.004-.08-.011-.187-.02-.299-.079.383-.195.86-.369 1.467-.055.192-.255.303-.447.248-.071-.021-.126-.065-.171-.118-.005.002-.011.004-.016.007.349.893.474 1.884.474 2.618.0.188-.005.358-.013.505-.001.031-.45 3.146-1.022 3.303-.156.043-.322-.013-.405-.152l-.531-.883-1.031-1.727c-.885-1.479-.863-2.818-.853-3.461v-.063c-.485.206-1.141.45-1.702.203-.045-.02-.075-.062-.117-.087-.2.426-.57.78-.867 1.019l.185.058c.726.21 2.653.768 3.225 4.033.157.895.295 1.917.295 2.742.0.675-.092 1.218-.343 1.451-.089.083-.277.142-.396.112-.228-.057-3.583-2.334-3.493-5.568.061-2.202-.728-2.792-.926-2.82-.011-.001-.02-.008-.031-.011.062.364.097.742.111 1.089.022.513-.202.747-.394.853-.197.109-.441.07-.691.023.107.198.187.395.187.575.0.044-.004.088-.013.13-.047.216-.197.378-.424.457-.402.139-.765.237-1.104.309 1.79.641 3.299 3.07 3.534 3.67.113.291.799 1.386 1.351 2.266 1.216 1.943 1.246 2.031 1.218 2.228-.323 2.263-1.386 3.96-2.993 4.778l-.575.29c-1.075.539-2.607 1.309-3.55 1.961.036.018.078.035.109.053.229-.164.618-.355 1.271-.355.456.0.901.135 1.298.359.005-.045.017-.09.04-.131.768-1.436 2.549-1.39 3.336-1.292.052-.242.125-.486.245-.719.125-.242.282-.512.447-.795.46-.792 1.136-2.475 1.331-2.473.194.002.14 1.381-.705 2.836-.16.277-.313.538-.43.766-.135.26-.199.547-.229.825-.001.018.003.037-.001.055-.001.006-.004.008-.005.012-.018.205-.017.396-.006.566.435.014.859.141 1.237.355.016-.01.04-.02.058-.029.003-.023.001-.047.01-.07.386-1.117 1.081-1.757 1.905-1.757.404.0.756.142 1.019.411.322.329.45.778.502 1.114.132-.021.28-.033.444-.033.473.0.935.146 1.343.387.235-.15.68-.35 1.407-.35.493.0.862.117 1.123.236l-.017-.119c-.26-.701-.83-.939-1.551-1.245-.959-.404-2.154-.907-2.852-2.708-.34-.878-.493-2.024-.554-3.068-.043-.717.093-2.984.274-2.994s.407 2.238.448 2.94c.058.989.196 2.063.505 2.86.587 1.515 1.539 1.916 2.458 2.304.71.299 1.441.606 1.844 1.418.017.033.101.225.19.43.191-.053.414-.092.694-.092.462.0.906.15 1.309.383.19-.113.512-.256 1.007-.316-.337-.377-.976-.656-2.675-1.37l-.302-.127c-2.578-1.084-3.205-2.193-3.662-3.002l-.058-.102c-.461-.807-1.399-5.238.497-8.142 1.141-1.748 2.599-2.46 3.308-2.721C45.368 32.555 45.366 32.537 45.365 32.527z"/><path fill="#fff" d="M55.1 32.287c-.197-.085-.383-.166-.447-.377l.098-.627c.102-.221.137-.295-.165-.539-.12-.097-.633.012-.881.064l-.83.049c-.191-.072-.334-.226-.446-.382-.047.027-.087.056-.146.081-.665.285-2.024.356-3.14-.275-.426.348-1.064.429-1.476.477.0.0-.041.006-.085.012.061.135.146.325.201.447.964-.202 1.731-.143 2.048.11.205.164.264.36.264.554.0.082-.023.154-.038.232.195.029.474.071.474.071.891.103 1.449.187 1.685.492.12.155.162.313.162.462.0.22-.095.407-.165.546.11.036.223.073.223.073.194.056.394.118.581.193l.274.037c.266.041.516.079.677-.022.048-.031.063-.058.08-.232l.208-.516.646-.101c.426.052.561.024.625-.126C55.689 32.609 55.575 32.492 55.1 32.287z"/><path fill="#fff" d="M52.959 35.955l-.374-.46c-.009-.04-.013-.079-.013-.116.0-.237.167-.406.284-.523.0.0.094-.108.121-.113-.089-.104-.526-.23-.74-.291-.407-.116-.677-.193-.778-.432-.028-.066-.04-.131-.04-.193.0-.157.073-.302.136-.425.071-.141.108-.227.108-.257.0-.004-.001-.008-.002-.01-.144-.11-.864-.193-1.21-.233-.75-.086-1.093-.125-1.145-.487l.042-.37s.028-.149.037-.151c-.144-.093-1.039-.203-2.417.309.456.225.944.523 1.427.872.457.331 1.123 1.151.921 1.323s-.943-.446-1.344-.737c-.487-.352-1.311-.702-1.849-.9.104.809.323 1.851.598 2.133.081-.089.297-.325.607-.208.221.083.312.304.492.744.171.418.528 1.288.884 1.336.323.043.373-.058.456-.224.053-.106.192-.388.508-.334l.478.346c.223.229.596.614.875.602.251-.011.358-.14.481-.29.104-.126.246-.299.487-.299l.324.075c.459.154.728.182.915-.1.047-.071.076-.126.076-.184C53.301 36.255 53.208 36.15 52.959 35.955z"/><path fill="#fff" d="M41.719 7.775c.283-.076.615-.082.852.273.266.399.367.788.367 1.152.0.723-.379 1.283-.681 1.674.275.05.578.177.722.547.036.09.051.194.051.306.0.367-.168.825-.355 1.226.298-.137.584-.105.777-.064.017-.043.036-.095.036-.095.203-.572.543-1.529 1.324-1.822l.452-.003c.006-.102-.003-.22-.05-.301-.021-.037-.05-.073-.146-.078-.157-.009-.291-.118-.33-.27-.04-.152.023-.313.156-.397.446-.283 1.203-.952 1.015-1.293-.232-.425-.507-.471-.728-.508.0.0-.365-.137-.366-.138-.181-.156-.155-.376-.122-.655.081-.673.05-1.057-.345-1.154-.446-.11-.784.283-1.147.767-.223.297-.415.553-.728.486l-.437-.285c-.121-.117-.219-.202-.327-.245.034.188.059.378.059.562C41.769 7.584 41.731 7.659 41.719 7.775z"/><path fill="#fff" d="M38.18 11.44c.583.395.766.905.766 1.397.0.6-.271 1.172-.412 1.471.0.0-.005.007-.005.008.14.013.33.031.33.031.078.001.159.005.238.009.076-.277.349-1.298.562-2.261.216-.972.338-1.876.469-1.889.281-.026.268.741.16 1.715-.104.95-.368 2.068-.5 2.581.475-.422 1.016-.674 1.365-.814.104-.065.251-.155.422-.224.479-.75.792-1.585.732-1.779-.042-.108-.189-.127-.463-.127-.182.0-.43.0-.551-.237-.114-.233.029-.407.196-.608.544-.659 1.028-1.443.484-2.269-.074-.017-.29.101-.361.139-.137.074-.365.198-.571.018-.113-.1-.15-.302-.097-.443.12-.315.189-1.121-.1-1.604-.13-.217-.319-.339-.58-.374-.305-.04-.559.753-.695 1.179-.135.42-.216.674-.423.792l-.707.015c-.211-.056-.348-.086-.468-.016-.361.209.096 1.08.37 1.599.25.474.387.737.243.987-.062.107-.226.202-.35.207-.271.011-.627.07-.784.288-.043.06-.068.127-.083.198C37.587 11.295 37.866 11.229 38.18 11.44z"/><path fill="#fff" d="M45.443 11.992c-.044-.126-.118-.337-.189-.371l-.188.028c-.465.175-.746.963-.896 1.387-.127.357-.219.615-.52.615l-.213-.038c-.201-.054-.409-.092-.625.141.159.194.228.408.262.541.0.0.022.08.042.119.222.444.343.91.383 1.389.178-.239.405-.518.671-.779.654-.643 1.456-1.19 1.625-.981.12.148-.512.764-1.075 1.396-.186.208-.354.418-.501.61.226-.069.456-.077.669.038.473.255.519.862.552 1.305.0.0.011.096.021.182.051.006.103.012.103.012.097.007.207.02.315.043.204-.11.612-.375.705-.66.055-.168-.012-.274-.128-.429-.082-.107-.192-.255-.141-.457.028-.108.173-.244.276-.288.343-.147.616-.291.841-.428.036-.036.079-.062.126-.079.454-.298.648-.556.66-.72.02-.262-.077-.33-.253-.453-.145-.101-.364-.254-.364-.547l.429-.623c.254-.228.638-.572.647-.877.004-.131-.063-.265-.207-.411-.219-.222-.426-.328-.633-.324-.426.007-.864.482-1.153.796l-.663.457C45.651 12.587 45.526 12.229 45.443 11.992z"/><path fill="#fff" d="M48.738 16.334c.104-.053.287-.146.287-.146.41-.239 1.045-.599 1.682-.398.164-.127.435-.32.766-.463.677-.293 1.477-.597 1.59-.46.111.135-.584.595-1.217.973-.203.122-.379.242-.526.346.282.285.394.569.419.803.384.029.663.243.863.397.0.0.062.041.121.081.078-.086.206-.229.206-.229.385-.471 1.028-1.255 1.973-1.096-.013-.211-.101-.48-.201-.666-.046-.085-.056-.185-.028-.277.028-.092.092-.17.177-.215.257-.136.811-.525.877-.86.013-.067.015-.16-.092-.289-.336-.408-.847-.277-1.384-.095l-.581.07-.339-.383c-.085-.178-.158-.333-.453-.404-.269-.065-.802.406-1.089.659l-.722.414-.556-.347s-.285-.224-.286-.251c-.187.046-.695.632-.787.815l-.313.308-.192.014c-.03.338-.276.666-.673.982C48.457 15.832 48.614 16.098 48.738 16.334z"/><path fill="#fff" d="M20.808 24.774c.315.417.02.948-.259 1.301.181.138.351.296.499.457.006-.01.005-.019.011-.028.349-.554.944-.545 1.245-.573.087-.069.21-.168.369-.268.017-.031.024-.072.024-.12.0-.069-.017-.139-.03-.205-.038-.025-.078-.052-.078-.052-.293-.188-.93-.595-.93-1.324.0-.102.013-.209.04-.324.117-.486.435-.743.772-.893-.096-.218-.159-.463-.209-.688.0.0-.079-.271-.079-.373.0-.02.005-.027.012-.031-.024.007-.46.135-.46.135-.386.145-.785.294-1.077.044l-.221-.293-.543-.7c-.34-.317-.851-.574-1.226-.435-.143.053-.171.193-.126.599.023.217.054.486-.193.627l-.513-.008c-.519-.154-.801-.154-1.002.262-.135.281-.151.515-.047.712.259.494 1.18.737 1.513.79.145.023.261.131.295.273.034.143-.021.292-.14.378-.089.064-.35.297-.375.511l.085.229c.121.141.354.077.864-.132C19.568 24.422 20.31 24.119 20.808 24.774z"/><path fill="#fff" d="M35.116 11.175c-.366.097-.331.771-.27 1.394.039.397.063.637-.108.808-.187.187-.43.15-.591.126-.217-.032-.262-.039-.344.142-.082.177.171.608.75 1.281.239.277.338.392.304.586-.009.057-.043.179-.219.318.123.177.239.382.35.616.12.018.26.074.398.218.12.125.213.313.293.521.128-.141.297-.252.515-.323-.068-.261-.145-.601-.197-.961-.127-.882-.148-1.863.0-1.902.242-.064.456.982.661 1.867.09.39.194.736.264.954.37.072.693.273.966.521.002-.366.071-.738.315-1.033.176-.212.42-.348.717-.42.078-.292.19-.555.337-.78l-.412-.035c-.405-.007-1.016-.019-1.112-.542L37.879 14c.418-.884.546-1.521-.11-1.967l-.282.24c-.152.162-.324.345-.583.287l-.455-.413C36.159 11.76 35.617 11.042 35.116 11.175z"/><path fill="#fff" d="M30.289 14.074l-.429.676c-.158.139-.261.237-.261.332.0.064.151.187 1.05.321-.062-.379-.125-.983.404-1.212.345-.15.671-.045.941.106-.103-.241-.242-.523-.428-.819-.234-.374-.901-1.173-.673-1.426s1.114.74 1.393 1.216c.344.588.524 1.108.604 1.379.205.034.442.101.695.226-.27-.36-.515-.773-.515-1.168.0-.123.023-.243.076-.359.251-.549.66-.591.991-.563-.004-.067-.009-.141-.009-.141-.019-.192-.042-.433-.042-.684.0-.161.012-.324.039-.483-.306-.176-.485-.071-.651.049-.098.07-.261.188-.467.106-.24-.096-.247-.3-.259-.638-.017-.49-.062-1.792-.649-1.878-.144-.021-.33.315-.441.517-.151.271-.293.528-.579.55-.238.019-.387-.145-.633-.416-.712-.783-1.25-1.146-1.894-.694-.486.342-.144 1.131.256 1.858l.164.558c-.059.207-.24.282-.415.354-.281.116-.498.224-.525.464-.07.632.595.878 1.404 1.114C29.903 13.553 30.309 13.67 30.289 14.074z"/><path fill="#fff" d="M20.893 20.945c-.003.002-.001.004-.004.006-.183-.232-.503-.64-.503-.64-.011-.01-.023-.019-.034-.029.174-.161.532-.391.674-.397.159-.008.353-.123.392-.277.077-.304-.167-.417-.448-.548-1.468-.683-1.683-1.083-1.605-1.298.047-.128.292-.246.471-.331l.412-.262c.162-.183.116-.414.045-.764-.159-.793-.172-1.286.235-1.457.189-.08.371.088.682.472l.546.46c.412.103.626-.307.783-.605.067-.128.208-.396.287-.432.28.009.422.929.482 1.321.075.486.12.78.41.868.373.115.626-.186.778-.365.125-.149.202-.227.246-.213.253.078.295.747.321 1.146.028.445.049.768.275.941.132.103.473.276.958-.07.382.37 1.001.416 1.365.438.0.0.223.026.324.038.0.008.003.015.003.023.0.181-.067.359-.114.461-1.272-.444-2.25-.221-2.725-.109l-.208.044-.262.012-.736.281c-.019.021-.023.043-.038.065-.356-.262-.834-.664-1.197-1.117-.585-.729-.856-1.592-1.073-1.509-.438.167.127 1.327.433 1.764.446.639 1.319 1.433 1.852 1.742l.009.036c-.004.3.037.628.121.955-.454.167-.586.632-.648.862.0.0-.008.026-.015.049-.07.014-.163.033-.163.033-.014.002-.03.006-.044.008-.093-.13-.179-.491-.215-.648-.083-.366-.155-.682-.382-.853-.31-.232-.714-.081-1.104.066.0.0-.359.108-.408.124L20.893 20.945z"/><path fill="#fff" d="M27.022 16.555l-.194.651-.142.396c0 .447.255.538 1.021.586.402.025.858.053.965.461.058.224.037.441-.001.635.047.006.094.006.142.018.536.133.989.572 1.3 1.216.09-.063.191-.119.305-.168l.74.004c.516.226.877.898 1.056 1.302.355-.145 1.058-.364 1.635.386.31-.071.586-.027.81.07.074-.183.19-.359.356-.499-.225-.227-.456-.57-.5-1.036-.723.334-1.632.335-2.548-.036-.652-.264-1.188-.799-1.304-1.3-.059-.256-.005-.493.151-.668l.001-.001c.002-.002.006-.005.008-.007-.646-1.14-.554-1.956-.356-2.457-.749-.11-1.492-.311-1.574-.921-.051.009-.101.016-.144.016l-.627-.28c-.696-.447-1.318-.77-1.87-.174-.269.29-.099.589.383 1.15C26.637 15.898 27.021 16.554 27.022 16.555z"/><path fill="#fff" d="M32.201 8.395c1.083.16 1.217 1.547 1.252 2.336.247-.091.576-.122.966.08.125-.148.28-.274.512-.335.341-.09.654-.02.935.125.118-.781.18-1.916.063-2.136-.063.003-.231.126-.333.244-.104.119-.274.158-.419.095s-.232-.213-.215-.371c.079-.705-.003-1.742-.363-1.854-.308-.096-.344-.031-.417.099-.191.343-.431.314-.555.268l-.372-.357c-.293-.373-.98-1.245-1.478-1.015-.387.179-.042 1.057.143 1.529.158.401.236.603.1.808-.134.2-.364.219-.566.234-.368.029-.462.076-.504.247-.055.226.077.458.219.633C31.38 8.687 31.696 8.32 32.201 8.395z"/><path fill="#fff" d="M39.265 15.089l-.059-.073c.019.023.044.042.068.062C39.271 15.082 39.268 15.085 39.265 15.089z"/><path fill="#fff" d="M50.351 25.593l-.004.002c-.017-.046-.043-.119-.043-.119C50.331 25.551 50.351 25.579 50.351 25.593z"/><path fill-rule="evenodd" clip-rule="evenodd" fill="#fff" d="M43.956 123.945c.051.289-.835.404-1.339.383-.739-.029-1.475-.117-1.427-.443.047-.328.72-.242 1.428-.211C43.09 123.693 43.904 123.658 43.956 123.945z"/><path fill="#fff" d="M23.459 95.684c-.002.0-.004.0-.006.0l-.355-.004c-.105-.002-.205-.049-.272-.129-.009-.012-.891-1.043-2.083-1.043-.85.0-1.591.322-2.308.633-.646.279-1.256.543-1.892.543h-1.82c-.2.0-.362-.16-.362-.361V85.137c-.312.201-.67.434-.807.523.0.365.0 9.678.0 10.342.663.0 8.112.0 8.112.0.098.0.193.041.261.111.006.006.572.582 1.375.664l.354-.006c.784-.096 1.33-.652 1.335-.658.068-.07.163-.111.261-.111.0.0 7.45.0 8.112.0.0-.664.0-9.977.0-10.342-.137-.09-.495-.322-.807-.523v10.186c0 .201-.162.361-.362.361h-1.819c-.636.0-1.247-.264-1.893-.543-.717-.311-1.458-.633-2.308-.633-1.192.0-2.074 1.031-2.083 1.043-.068.08-.167.127-.272.129l-.355.004C23.463 95.684 23.461 95.684 23.459 95.684z"/><path fill="#fff" d="M34.088 96.363c0 .201-.162.361-.362.361.0.0-8.06.0-8.333.0-.234.209-.825.664-1.65.766.0.0-.509.008-.512.006-.856-.086-1.469-.559-1.708-.771-.272.0-8.333.0-8.333.0-.2.0-.362-.16-.362-.361V85.801c-.233.0-.526.0-.741.0.0.662.0 11.074.0 11.736.67.0 9.381.0 9.381.0.105.0.206.047.275.127.004.004.425.48 1.202.621.276.049.826.037 1.064-.006.751-.141 1.156-.607 1.16-.613.069-.08.171-.129.277-.129.0.0 8.711.0 9.381.0.0-.662.0-11.074.0-11.736-.215.0-.508.0-.741.0V96.363z"/><path fill="#fff" d="M20.518 83.254c-1.271.0-1.941.49-2.532.922-.454.332-.883.646-1.471.646.0.0-.97.0-1.431.0.0.652.0 9.486.0 10.139.464.0 1.458.0 1.458.0.486.0 1.004-.225 1.604-.484.748-.324 1.595-.691 2.595-.691 1.104.0 1.943.637 2.355 1.02.001-.939.012-10.248.012-10.248C23.094 84.504 22.707 83.254 20.518 83.254zm1.17 8.508c-.018.088-.031.094-.117.129-.213-.043-.909-.121-1.563.047l-1.119.451-.594.283c-.802.355-1.445.404-1.623.41-.088.004-.163-.066-.166-.154-.003-.09.066-.164.155-.168.164-.004.755-.049 1.503-.381l.582-.277 1.182-.475c.858-.223 1.699-.053 1.708-.051C21.72 91.637 21.707 91.676 21.688 91.762zm0-2.157c-.018.088-.031.094-.117.129-.213-.043-.909-.121-1.563.047l-1.119.451-.594.283c-.802.355-1.445.404-1.623.41-.088.004-.163-.066-.166-.154-.003-.09.066-.164.155-.168.164-.004.755-.049 1.503-.381l.582-.277 1.182-.475c.858-.223 1.699-.053 1.708-.051C21.72 89.48 21.707 89.52 21.688 89.605zm0-2.125c-.018.088-.031.094-.117.129-.213-.043-.909-.121-1.563.047l-1.119.451-.594.283c-.802.355-1.445.404-1.623.41-.088.004-.163-.066-.166-.154-.003-.09.066-.164.155-.168.164-.004.755-.049 1.503-.381l.582-.277 1.182-.475c.858-.223 1.699-.053 1.708-.051C21.72 87.355 21.707 87.395 21.688 87.48zm0-2.152c-.018.088-.031.094-.117.129-.213-.043-.909-.121-1.563.047l-1.119.451-.594.283c-.802.355-1.445.404-1.623.41-.088.004-.163-.066-.166-.154-.003-.09.066-.164.155-.168.164-.004.755-.049 1.503-.381l.582-.277 1.182-.475c.858-.223 1.699-.053 1.708-.051C21.72 85.203 21.707 85.242 21.688 85.328z"/><path fill="#fff" d="M23.82 95.68l-.355.004c-.002.0-.004.0-.006.0s-.004.0-.006.0l-.355-.004c-.105-.002-.205-.049-.272-.129-.009-.012-.891-1.043-2.083-1.043-.85.0-1.591.322-2.308.633-.646.279-1.256.543-1.892.543h-1.82c-.2.0-.362-.16-.362-.361V85.137c-.312.201-.67.434-.807.523.0.365.0 9.678.0 10.342.663.0 8.112.0 8.112.0.098.0.193.041.261.111.006.006.572.582 1.375.664l.354-.006c.784-.096 1.33-.652 1.335-.658.068-.07.163-.111.261-.111.0.0 7.45.0 8.112.0.0-.664.0-9.977.0-10.342-.137-.09-.495-.322-.807-.523v10.186c0 .201-.162.361-.362.361h-1.819c-.636.0-1.247-.264-1.893-.543-.717-.311-1.458-.633-2.308-.633-1.192.0-2.074 1.031-2.083 1.043C24.025 95.631 23.925 95.678 23.82 95.68z"/><path fill="#fff" d="M34.83 85.801c-.215.0-.508.0-.741.0v10.563c0 .201-.162.361-.362.361.0.0-8.06.0-8.333.0-.234.209-.825.664-1.65.766.0.0-.509.008-.512.006-.856-.086-1.469-.559-1.708-.771-.272.0-8.333.0-8.333.0-.2.0-.362-.16-.362-.361V85.801c-.233.0-.526.0-.741.0.0.662.0 11.074.0 11.736.67.0 9.381.0 9.381.0.105.0.206.047.275.127.004.004.425.48 1.202.621.276.049.826.037 1.064-.006.751-.141 1.156-.607 1.16-.613.069-.08.171-.129.277-.129.0.0 8.711.0 9.381.0C34.83 96.875 34.83 86.463 34.83 85.801z"/><path fill="#fff" d="M30.404 84.822c-.588.0-1.017-.314-1.471-.646-.591-.432-1.262-.922-2.533-.922-2.189.0-2.576 1.25-2.578 1.207.0.0.0 9.402.0 10.344.412-.383 1.251-1.02 2.354-1.02 1 0 1.848.367 2.595.691.601.26 1.12.484 1.605.484.0.0.993.0 1.458.0.0-.652.0-9.486.0-10.139C31.374 84.822 30.404 84.822 30.404 84.822zm-.174 8.237c-.179-.006-.824-.053-1.624-.41l-.593-.281-1.121-.453c-.65-.166-1.349-.088-1.563-.045-.087.018-.172-.039-.19-.125-.018-.088.039-.172.125-.189.009-.002.853-.17 1.707.049l1.183.475.581.277c.747.332 1.34.377 1.503.383.089.004.158.078.155.166C30.394 92.994 30.319 93.063 30.23 93.059zm0-2.125c-.179-.006-.824-.053-1.624-.41l-.593-.281-1.121-.453c-.65-.166-1.349-.088-1.563-.045-.087.018-.172-.039-.19-.125-.018-.088.039-.172.125-.189.009-.002.853-.17 1.707.049l1.183.475.581.277c.747.332 1.34.377 1.503.383.089.004.158.078.155.166C30.394 90.869 30.319 90.938 30.23 90.934zM30.229 88.791c-.179-.006-.824-.057-1.623-.41l-.598-.285s-1.115-.449-1.115-.449c-.657-.168-1.35-.09-1.562-.047-.087.02-.172-.037-.19-.123-.018-.088.038-.174.125-.191.009-.002.844-.172 1.707.049l1.178.475.586.279c.746.33 1.34.377 1.504.383.088.004.158.078.154.166C30.393 88.727 30.318 88.795 30.229 88.791zM30.23 86.648c-.178-.006-.821-.055-1.624-.41l-.593-.283s-1.12-.451-1.12-.451c-.653-.168-1.349-.09-1.562-.047-.112-.02-.156-.057-.174-.145-.018-.086.031-.125.109-.17.008-.002.849-.172 1.707.049l1.183.477.582.277c.75.332 1.34.377 1.503.381.089.004.158.078.155.168C30.394 86.582 30.319 86.652 30.23 86.648z"/><path fill="#fff" d="M52.585 95.684l.356-.004c.105-.002.205-.049.272-.129.009-.012.891-1.043 2.083-1.043.851.0 1.592.322 2.309.633.646.279 1.256.543 1.892.543h1.82c.2.0.362-.16.362-.361V85.135c.312.203.671.436.807.525.0.365.0 9.678.0 10.342-.663.0-8.112.0-8.112.0-.098.0-.193.041-.261.111-.005.006-.551.563-1.335.658l-.355.006c-.803-.082-1.369-.658-1.375-.664-.068-.07-.163-.111-.261-.111.0.0-7.45.0-8.113.0.0-.664.0-9.977.0-10.342.137-.09.495-.322.807-.525v10.188c0 .201.162.361.362.361h1.82c.636.0 1.246-.264 1.893-.543.716-.311 1.457-.633 2.307-.633 1.192.0 2.076 1.031 2.084 1.043.067.08.167.127.272.129l.355.004c.002.0.004.0.006.0S52.583 95.684 52.585 95.684z"/><path fill="#fff" d="M63.208 96.363c0 .201-.162.361-.362.361.0.0-8.06.0-8.333.0-.234.209-.825.664-1.65.766.0.0-.509.008-.512.006-.856-.086-1.468-.559-1.707-.771-.272.0-8.333.0-8.333.0-.2.0-.362-.16-.362-.361V85.801c-.233.0-.527.0-.742.0.0.662.0 11.074.0 11.736.67.0 9.382.0 9.382.0.105.0.206.047.275.127.004.004.424.48 1.202.621.276.049.825.037 1.064-.006.751-.141 1.156-.607 1.16-.613.069-.08.171-.129.277-.129.0.0 8.711.0 9.382.0.0-.662.0-11.074.0-11.736-.215.0-.508.0-.742.0V96.363z"/><path fill="#fff" d="M52.941 95.68l-.356.004c-.002.0-.004.0-.006.0s-.004.0-.006.0l-.355-.004c-.105-.002-.205-.049-.272-.129-.009-.012-.892-1.043-2.084-1.043-.85.0-1.591.322-2.307.633-.646.279-1.257.543-1.893.543h-1.82c-.2.0-.362-.16-.362-.361V85.135c-.312.203-.67.436-.807.525.0.365.0 9.678.0 10.342.663.0 8.113.0 8.113.0.098.0.193.041.261.111.006.006.571.582 1.375.664l.355-.006c.784-.096 1.33-.652 1.335-.658.068-.07.163-.111.261-.111.0.0 7.45.0 8.112.0.0-.664.0-9.977.0-10.342-.136-.09-.495-.322-.807-.525v10.188c0 .201-.162.361-.362.361h-1.82c-.635.0-1.246-.264-1.892-.543-.717-.311-1.458-.633-2.309-.633-1.192.0-2.074 1.031-2.083 1.043C53.146 95.631 53.046 95.678 52.941 95.68z"/><path fill="#fff" d="M63.95 85.801c-.215.0-.508.0-.742.0v10.563c0 .201-.162.361-.362.361.0.0-8.06.0-8.333.0-.234.209-.825.664-1.65.766.0.0-.509.008-.512.006-.856-.086-1.468-.559-1.707-.771-.272.0-8.333.0-8.333.0-.2.0-.362-.16-.362-.361V85.801c-.233.0-.527.0-.742.0.0.662.0 11.074.0 11.736.67.0 9.382.0 9.382.0.105.0.206.047.275.127.004.004.424.48 1.202.621.276.049.825.037 1.064-.006.751-.141 1.156-.607 1.16-.613.069-.08.171-.129.277-.129.0.0 8.711.0 9.382.0C63.95 96.875 63.95 86.463 63.95 85.801z"/><path fill="#fff" d="M49.638 83.254c-1.27.0-1.941.49-2.532.922-.455.332-.884.646-1.472.646.0.0-.969.0-1.43.0.0.652.0 9.486.0 10.139.464.0 1.458.0 1.458.0.486.0 1.004-.225 1.605-.484.748-.324 1.595-.691 2.595-.691 1.104.0 1.944.637 2.355 1.02.001-.939.012-10.248.012-10.248C52.214 84.504 51.827 83.254 49.638 83.254zM45.756 86.326c.163-.004.754-.049 1.503-.381l.58-.277 1.184-.475c.858-.223 1.699-.053 1.708-.051.067.029.132.115.114.201-.018.088-.063.094-.18.113-.213-.043-.909-.121-1.563.047l-1.121.451-.592.283c-.802.355-1.445.404-1.623.41-.088.004-.163-.066-.166-.154C45.598 86.404 45.667 86.33 45.756 86.326zM45.755 88.471c.165-.006.759-.053 1.504-.383l.585-.279 1.179-.473c.864-.223 1.699-.053 1.708-.051.087.018.143.104.125.191-.018.086-.103.143-.19.123-.212-.043-.905-.121-1.563.047l-1.116.449-.597.285c-.798.354-1.443.404-1.622.41-.089.004-.164-.064-.167-.154C45.597 88.549 45.667 88.475 45.755 88.471zM50.666 91.887c-.213-.043-.91-.119-1.563.045l-1.117.451-.596.283c-.797.355-1.443.404-1.623.41-.088.004-.163-.066-.166-.154-.003-.09.066-.164.155-.168.165-.004.759-.049 1.503-.381l.585-.277 1.18-.475c.857-.219 1.698-.051 1.707-.049.0.0.083.037.068.193C50.789 91.854 50.735 91.875 50.666 91.887zm0-2.143c-.214-.043-.912-.121-1.563.045l-1.122.453-.591.281c-.799.357-1.444.404-1.623.41-.088.004-.163-.064-.166-.154-.003-.088.066-.162.155-.166.164-.006.757-.051 1.503-.383l.58-.275 1.185-.477c.855-.219 1.698-.051 1.707-.049.087.018.143.102.125.189C50.837 89.705 50.753 89.762 50.666 89.744z"/><path fill="#fff" d="M55.296 93.785c-1.104.0-1.943.637-2.354 1.02.0-.939.0-10.344.0-10.344.002.043.389-1.207 2.579-1.207 1.271.0 1.94.49 2.532.922.455.332.883.646 1.472.646.0.0.97.0 1.43.0.0.652.0 9.486.0 10.139-.464.0-1.458.0-1.458.0-.485.0-1.004-.225-1.604-.484C57.144 94.152 56.296 93.785 55.296 93.785zM54.359 87.285c-.087.018-.143.104-.125.189.018.088.103.145.19.125.213-.043.91-.121 1.563.047l1.12.451.593.283c.802.355 1.445.404 1.623.41.088.004.163-.066.166-.154.003-.09-.066-.164-.155-.168-.163-.004-.754-.049-1.503-.381l-.581-.277-1.183-.477C55.21 87.113 54.368 87.283 54.359 87.285zM54.359 85.072c-.087.018-.143.104-.125.189.018.088.103.145.19.125.212-.043.907-.121 1.563.047l1.114.449.598.285c.799.354 1.443.404 1.622.41.089.004.164-.064.167-.154.003-.088-.066-.162-.154-.166-.165-.006-.758-.053-1.504-.383l-.586-.279-1.178-.475C55.205 84.902 54.368 85.07 54.359 85.072zM54.36 89.43c-.087.018-.144.102-.126.189.018.086.103.143.189.125.215-.043.915-.119 1.564.045l1.12.453.592.281c.8.357 1.444.404 1.623.41.088.004.163-.064.166-.154.003-.088-.066-.162-.155-.166-.164-.006-.756-.051-1.503-.383l-.581-.277-1.183-.475C55.385 89.305 54.652 89.369 54.36 89.43zm0 2.142c-.087.018-.144.102-.126.189.018.086.103.143.189.125.214-.043.912-.119 1.564.047l1.115.449.597.283c.797.355 1.444.404 1.623.41.088.004.163-.066.166-.154.003-.09-.066-.164-.155-.168-.164-.004-.759-.049-1.503-.381l-.585-.279-1.178-.473C55.382 91.447 54.651 91.512 54.36 91.572z"/><g><path fill="#fff" d="M30.706 115.541c-.073-.109-.258-.277-.497-.455-.125.17-.313.344-.598.449l-.604.135c-.668.113-1.584.27-1.871.98-.124.305-.168.588-.168.832.0.396.106.646.185.789.079-.031.176-.076.275-.127-.193-.758.211-1.486.326-1.426.076.041.042.463.085.793.018.137.057.25.095.332.146-.1.269-.195.299-.26.08-.592.525-.957.891-.957l.418.131c.4.172 1.334.572 1.695.232C31.099 116.494 30.862 115.773 30.706 115.541z"/></g><g><path fill="#fff" d="M41.199 119.066c-.084-.043-.153-.102-.233-.148-.006.002-.012.004-.019.004-.465.0-2.592-.355-2.911-.42-.002-.002-.256-.064-.987.227-.604.242-.982.699-1.22 1.141.08.063.2.141.329.219.188-.283.462-.635.969-.828.417-.162 1.042-.236 1.296-.111.164.082-.545.279-1.082.652-.25.172-.427.424-.54.605.014.004.034.014.046.018.146.031.498-.063.781-.137.0.0.753-.166.755-.166.352-.039 4.104-.012 5.159-.004.063-.125.113-.254.148-.367C43.131 119.688 42.117 119.525 41.199 119.066z"/></g><path fill-rule="evenodd" clip-rule="evenodd" fill="#fff" d="M42.491 125.563c.063.287-1.005.404-1.613.383-.891-.031-1.778-.119-1.721-.447.058-.324.868-.24 1.721-.209C41.448 125.309 42.428 125.275 42.491 125.563zM40.874 127.201c-.059-.275-.98-.242-1.515-.262-.801-.029-1.563-.111-1.616.203-.054.313.779.398 1.615.428C39.928 127.59 40.932 127.479 40.874 127.201zm-1.796 1.697c-.044-.24-.729-.213-1.126-.23-.596-.023-1.163-.096-1.203.178-.04.271.58.346 1.202.371C38.375 129.234 39.122 129.137 39.078 128.898zm-14.464-20.24-.192.063c-.189.064-.292.268-.229.457.063.189.267.293.457.23l.192-.063c.189-.064.292-.268.229-.457C25.009 108.699 24.804 108.596 24.614 108.658zM35.781 105.582c-.058-.094-.209-.131-.296-.09l-1.987.664c-.183.082-.231.338-.149.521.083.182.32.328.502.246l1.861-1.029C35.808 105.852 35.845 105.686 35.781 105.582zM36.074 107.352c-.041-.104-.183-.164-.275-.141l-1.541.229c-.193.049-.286.291-.237.486.049.193.258.379.452.33l1.48-.609C36.055 107.619 36.12 107.463 36.074 107.352zM36.119 109.246c-.025-.107-.157-.189-.251-.182l-1.21-.051c-.179.016-.294.221-.277.398.017.18.176.373.355.357l1.217-.252C36.058 109.508 36.146 109.363 36.119 109.246zM35.829 111.012c-.008-.1-.114-.189-.201-.193l-.905-.207c-.162-.006-.291.16-.298.322s.111.354.272.363l.95-.063C35.742 111.238 35.838 111.119 35.829 111.012zM43.454 104.781c-.046.195.074.391.268.438.008.002 1.051.316 1.856.652.15.064.321.021.396-.123.075-.143.02-.318-.124-.395-.904-.473-1.922-.83-1.959-.84C43.695 104.469 43.501 104.588 43.454 104.781zM43.898 106.453c-.042.176.066.352.241.393.007.002.784.215 1.398.469.135.055.289.018.356-.113.067-.129.017-.287-.112-.354-.813-.426-1.458-.627-1.492-.635C44.115 106.172 43.94 106.279 43.898 106.453zM44.053 107.986c-.034.141.054.283.195.316.005.002.725.217.973.324.121.051.26.016.321-.102.061-.115.016-.26-.101-.32-.731-.383-.928-.393-1.071-.416C44.228 107.77 44.087 107.844 44.053 107.986zM44.003 109.359c-.03.127.048.256.175.285.005.002.433.094.632.162.111.039.233.016.288-.09.054-.104.014-.232-.091-.287-.222-.119-.613-.244-.72-.246C44.182 109.182 44.033 109.23 44.003 109.359zm3.429-1.949c-.101.172-.043.395.129.494.006.006.418.207 1.091.762.125.104.301.113.414-.002s.112-.301-.003-.416c-.727-.715-1.104-.947-1.137-.967C47.754 107.18 47.532 107.238 47.432 107.41zM47.186 109.082c-.085.158-.025.355.133.439.006.004.243.084.773.488.116.088.274.09.372-.018s.09-.273-.017-.371c-.678-.619-.79-.656-.821-.674C47.467 108.863 47.27 108.924 47.186 109.082zM46.796 110.404c-.073.125-.031.287.095.359.006.004.27.16.478.334.101.084.243.09.335-.004.092-.096.089-.242-.003-.336-.097-.098-.403-.387-.544-.449C47.024 110.25 46.87 110.279 46.796 110.404zM46.286 111.477c-.077.105-.052.254.054.33.005.004.094.043.253.182.089.076.21.102.301.025.09-.076.101-.211.025-.301-.162-.193-.206-.25-.303-.291S46.361 111.369 46.286 111.477zM49.714 110.979c-.104.104-.104.27-.002.373.004.004.132.125.287.346.075.107.212.15.325.084s.148-.211.083-.326c-.068-.119-.201-.379-.321-.475C49.974 110.889 49.817 110.877 49.714 110.979zm-.741.988c-.093.092-.092.246.0.334.092.088.145.135.163.15.101.088.191.133.292.072s.125-.186.073-.293c-.047-.096-.104-.209-.194-.266C49.217 111.908 49.065 111.873 48.973 111.967zM25.062 111.793c.302-.148-.409-.77-.214-1.18.215-.453 1.744-1.107 1.72-1.359-.024-.256-2.053.373-2.374 1.049C23.853 111.021 24.76 111.943 25.062 111.793zm2.257-3.992c.273.129.425-.15.528-.188.042-.016.147-.08.311-.01.169.072.167.189.176.219.015.051.019.316.244.367.225.049.7-.795-.098-1.182-.255-.123-.534-.143-.791-.051C27.197 107.135 27.046 107.674 27.319 107.801zM49.461 107.234c-5.428-6.559-12.952-3.402-13.342-3.242-1.506.303-2.771.967-3.608 1.406l-.878.408s-2.762.34-2.763.34c-.814.172-1.949.797-3.387 1.586l-1.051.572c-1.7.916-1.983 1.656-1.985 1.664-.033.092-.106.176-.195.215-.172.078-.385.217-.426.438-.005.023-.007.049-.007.074s.012.051.017.078l.368-.201c.175-.096.395-.031.491.143.096.176.031.396-.144.492l-.371.203c.269.463.677.561.677.568.004-.002.155-.045.155-.045.347-.113 1.268-.41 1.704.734l-.021.594c-.1.219-.297.377-.484.5.323.113.868.059 1.091.033.0.0.218-.02.21-.02l.396-.066c.968-.178 2.058-.355 2.741-.207.947.209 2.301 1.1 2.659 1.639.258.387.818 2.082.749 2.436-.035.234-.142.947-.938 1.361-.475.246-1.003.238-1.428.232.0.0-.446.02-.446.01-.104.084-.356.453-.607.844.114.0.252.0.396.0.254-.266.613-.598.743-.502.084.063.031.271-.061.5.428-.002.788-.004.788-.004l.336.008c.467.016 1.337.043 1.609-.197l.382-.309 1.229-1.012 1.282-1.035.526-.418c.25-.217.284-1.846.073-3.488-.025-.197.115-.379.313-.404.198-.025.379.115.405.313.09.701.22 2.049.09 3.041.029.01.06.018.087.035.991.656 2.109 1.072 2.961 1.324-.315-.418-.582-.906-.787-1.49-.15-.43-.215-.826-.215-1.199.0-1.279.766-2.244 1.409-3.057.51-.643.957-1.207.957-1.781.0-.053-.004-.105-.012-.16-.002-.018-.004-.035-.004-.053.0-.178.129-.332.309-.357.197-.029.381.105.411.303.14.943-.459 1.699-1.094 2.498-.794 1-1.616 2.037-1.079 3.566.347.99.851 1.654 1.544 2.092.029.016.055.031.08.051.07.043.131.096.206.133 1.165.582 2.618.646 2.632.648.101.004.196.051.262.127.065.078.095.18.082.279-.004.031-.08.586-.381 1.107-.021.07-.061.131-.117.176-.076.107-.158.213-.257.307l-1.293.934c-1.019.688-2.558 1.727-4.268 3.141-2.039 1.686-3.228 4.059-2.929 5.055.053.176.177.416.638.467 3.432.371 5.457-1.809 7.243-3.732l.462-.496c1.202-1.271 2.112-2.824 2.714-3.854.429-.73.61-1.033.797-1.162 1.428-.988 3.66-3.984 4.15-7.545C51.607 111.33 51.002 109.098 49.461 107.234z"/><path fill="#fff" d="M58.517 121.01c.641.076 1.325.004 1.961-.258.608-.248 1.046-.658 1.388-1.119.463.67 1.576 2.281 1.988 2.877-.666.904-1.533 1.799-2.479 2.639l-2.858-4.139z"/><path fill="#fff" d="M14.331 119.633c.34.461.778.869 1.386 1.119.645.266 1.339.336 1.987.256l-2.938 4.152c-.946-.84-1.814-1.734-2.48-2.639C12.698 121.924 13.867 120.303 14.331 119.633z"/><path fill="#fff" d="M23.765 144.238c.153-.186.333-.357.552-.539l.54-.441c.711-.576 1.623-1.332 2.213-1.939 1.463.648 2.691 1.334 3.502 2.242.614.688.697 1.58.241 2.082-.098.107-.271.264-.387.371l-.977.996h-.576c-2.89.025-4.869-.99-5.266-1.957C23.504 144.801 23.63 144.459 23.765 144.238z"/><path fill="#fff" d="M51.347 143.266l.533.434c.218.18.399.354.552.539.135.221.212.65.108.902-.396.967-2.375 1.98-5.26 1.957-.001.0-.001.0-.002.0.0.0-.001.0-.002.0H46.7l-.928-1.082c-.116-.109-.333-.281-.438-.383-.344-.33-.374-1.395.241-2.084.812-.908 2.04-1.594 3.502-2.242C49.668 141.918 50.633 142.688 51.347 143.266z"/><path fill="#fff" d="M15.299 113.602z"/><path fill="#fff" d="M24.903 139.43l-.316-.125c-6.671-2.639-12.206-6.166-14.804-9.436-2.876-3.619-2.444-6.527-1.575-8.33l.899-1.928.861-1.803c-.065.91.061 2.012.604 3.309 1.371 3.27 5.975 6.766 9.501 8.766 1.519.861 3.029 1.553 4.489 2.221 4.025 1.844 7.204 3.299 7.204 6.9v4.254c0 .174-.009.33-.022.479-.121-.283-.279-.553-.486-.783C29.863 141.391 27.564 140.482 24.903 139.43zm-6.61-8.881c.069-.131.145-.268.213-.398-.505-.311-1-.635-1.484-.984-.072.123-.155.295-.22.422.121.086.242.172.362.256-.513 1.074-1.004 2.102-1.517 3.178-.125-.07-.248-.141-.372-.211-.068.125-.136.285-.203.41.813.566 1.649 1.061 2.5 1.543.246-.311.471-.609.717-.92.008-.018.016-.033.024-.051-.122-.115-.244-.23-.366-.348-.182.211-.418.48-.637.594-.27-.098-.742-.354-.97-.592.003-.266 1.124-2.4 1.484-3.158C17.945 130.303 18.174 130.471 18.293 130.549zM14.4 130.82c.196-.365.392-.73.587-1.098-.104-.09-.209-.182-.314-.271-.067.098-.134.195-.202.291-.06.031-.563-.393-.668-.484.217-.422.457-.891.699-1.359.225.184.713.52.819.748.076.166-.142.508-.168.703.024.111.272.203.365.271.165-.357.362-.748.517-1.111-.756-.58-1.497-1.178-2.235-1.785-.074.129-.147.256-.221.385.109.1.218.199.328.299-.569 1.1-1.002 1.996-1.579 3.086-.111-.084-.221-.168-.332-.25-.072.129-.137.246-.209.375.729.668 1.446 1.273 2.248 1.869.212-.309.441-.643.653-.951.006-.014.012-.027.018-.043-.115-.117-.231-.234-.347-.352-.071.113-.426.574-.51.578-.158.01-.777-.563-.898-.742.023-.24.518-1.078.658-1.346.201.164.495.354.624.553-.027.115-.087.266-.149.387C14.189 130.656 14.294 130.738 14.4 130.82zM27.583 134.758c-1.087-.605-2.249-1.092-3.368-1.621-.191.361-.379.719-.569 1.08.152.086.303.172.454.256.148-.201.294-.404.442-.605.209-.023.564.158.814.26-.476 1.061-.999 2.199-1.478 3.262-.167-.066-.333-.129-.5-.195-.062.129-.125.258-.187.389.584.258 1.169.516 1.751.77.06-.129.119-.26.177-.391-.167-.082-.333-.162-.5-.244.482-1.063 1.016-2.203 1.494-3.26.251.115.581.297.677.482-.08.219-.161.439-.241.66.038.084.371.176.489.232C27.22 135.475 27.402 135.115 27.583 134.758zM23.686 132.908c-.471-.236-.943-.473-1.415-.711-.063.125-.126.25-.189.375.161.09.322.18.483.27-.509 1.08-1.292 3.52-2.397 2.797-.781-.512-.49-1.141-.054-2.055.247-.51.528-1.088.775-1.598.163.08.325.158.487.238.062-.129.123-.26.185-.389-.521-.266-1.042-.557-1.564-.822-.064.129-.13.256-.194.383.11.061.222.121.333.182-.005.215-.365.836-.478 1.074-.525 1.102-1.055 1.963-.562 2.74.119.186.31.35.516.504.295.221.695.344.954.367 1.286.113 1.878-1.627 2.579-3.125.118.053.237.105.356.158C23.563 133.166 23.624 133.037 23.686 132.908zM12.92 126.533c.092.08.184.16.275.238.062-.139.124-.279.186-.418-.371-.357-.743-.715-1.114-1.07-.061.141-.143.27-.213.404.112.131.269.258.388.379-.354.414-1.711 1.889-1.823 1.992-.004.008-.007.014-.011.021-.056-.102.482-3.152.566-3.43.124.139.248.279.372.418.077-.129.155-.258.232-.387-.398-.484-.779-.984-1.122-1.514-.091.119-.181.238-.271.359.068.117.135.232.203.352-.104.385-.697 4.227-.733 4.645.125.168.251.338.377.506C10.982 128.486 12.65 126.809 12.92 126.533z"/><path fill="#fff" d="M66.413 129.869c-2.598 3.27-8.132 6.797-14.803 9.436l-.312.123c-2.664 1.053-4.964 1.961-6.361 3.525-.207.23-.366.5-.486.785-.014-.15-.022-.307-.022-.48v-4.254c0-3.602 3.179-5.057 7.204-6.9 1.46-.668 2.97-1.359 4.489-2.221 3.526-2 8.13-5.496 9.501-8.766.544-1.297.67-2.398.605-3.307l.86 1.801.9 1.93C68.858 123.342 69.292 126.25 66.413 129.869zm-13.786 5.322c-.006-.006-.012-.012-.019-.016.036-.662.108-1.252.187-1.914.011-.008.021-.02.033-.027.252.541.454.986.721 1.523C53.258 134.898 52.919 135.059 52.627 135.191zM56.134 134.73c.024.17.158.545.089.684-.071.146-1.053.664-1.233.67-.217-.402-.368-.873-.575-1.281.233-.113.908-.477 1.024-.465.064.109.129.223.194.334.137-.068.273-.139.41-.207-.179-.406-.356-.813-.534-1.217-.134.064-.27.131-.403.195.035.129.07.258.105.387-.098.152-.788.482-.99.584-.257-.523-.462-1.018-.706-1.547.337-.156.869-.5 1.188-.559.148.094.318.363.427.537.129-.08.258-.16.388-.24.026-.1-.425-.832-.503-.994-.817.436-1.833.951-2.652 1.33-.116 1.516-.266 3.053-.399 4.549-.119.064-.237.152-.355.215.057.133.113.264.168.396.466-.191.924-.428 1.396-.621-.058-.131-.114-.264-.171-.395-.157.055-.303.135-.458.189.021-.488.04-1.107.049-1.598.359-.168.776-.363 1.133-.539.202.398.379.928.59 1.322-.14.082-.291.143-.43.225.064.129.128.26.192.387.894-.41 1.964-.953 2.844-1.404-.107-.357-.214-.717-.321-1.074C56.446 134.639 56.29 134.686 56.134 134.73zM59.395 129.535c.102-.076.204-.152.306-.229-.065-.129-.131-.258-.198-.385-.438.295-.877.59-1.316.887.066.127.133.256.199.385.146-.094.292-.186.439-.279.133.627.312 2.459.342 2.891.017.17.035.338.052.508.002.006.005.014.009.02-.101.031-.442-.43-.537-.533l-1.092-1.244c-.16-.189-.349-.377-.501-.57.165-.102.328-.203.493-.303-.052-.137-.103-.273-.155-.408-.553.314-1.107.629-1.661.943.051.135.103.27.154.406.119-.059.238-.119.357-.178.209.244.466.494.685.734.51.527 1.021 1.055 1.53 1.584.22.217.44.443.659.66.184-.107.367-.217.551-.326-.069-1.053-.138-2.117-.207-3.17C59.469 130.496 59.449 129.965 59.395 129.535zM63.4 131.02c-.908.758-1.914-.414-2.161-1.533-.118-.529-.116-1.076.182-1.473.087-.084.174-.168.261-.254.241-.146.435-.23.626-.223C63.419 127.582 64.495 130.104 63.4 131.02zM63.767 127.422c-.591-.568-1.298-.658-2.258-.072-.146.129-.291.256-.436.383-.4.445-.578.984-.62 1.545-.017.225.018.484.067.721.058.281.241.725.401.953.597.857 1.284 1.092 2.271.703C64.82 131.014 64.956 128.564 63.767 127.422z"/><path fill="#fff" d="M52.981 145.98c.001.045.005.084.005.133v5.992c0 1.82-3.109 2.467-5.772 2.467H28.982c-2.663.0-5.771-.646-5.771-2.467v-5.992c0-.047.004-.086.005-.133 1 1.176 3.21 1.941 5.771 1.92h18.228.001C49.774 147.922 51.983 147.156 52.981 145.98zm-5.993 5.25c.003-.582.007-1.162.011-1.742.237-.02.505-.037.7.043.468.189.738.877.365 1.375C47.852 151.191 47.472 151.24 46.988 151.23zm1.99 1.375c-.18-.332-.451-1.049-.807-1.172-.003-.014-.006-.029-.01-.043.767-.209 1.259-1.381.505-1.979-.591-.469-1.82-.355-2.86-.344-.007.137-.015.273-.022.408v.012c.144.006.287.014.431.021v3.473c-.14.01-.279.021-.419.031-.004.137-.007.273-.011.41v.01h1.667c.003-.141.007-.279.011-.42-.161-.006-.322-.014-.483-.021.003-.443.007-.887.01-1.332.186-.006.403-.029.548.031.414.176.655 1.385 1 1.732.08.07.916.014 1.087.01l.01-.43c-.136-.012-.272-.021-.409-.031C49.092 152.908 49.048 152.734 48.978 152.605zM38.859 152.424c-.094.371-.396.533-.796.602-.194.033-.499.008-.568-.096-.062-.068-.045-.238-.043-.367.002-.189-.027-1.064.032-1.172C38.237 151.379 39.066 151.604 38.859 152.424zm-1.386-2.947c.484-.025.86.018 1.063.301.083.117.153.314.118.506-.097.555-.536.73-1.192.689C37.466 150.475 37.47 149.977 37.473 149.477zm1.204 1.625h-.022v-.043c.766-.311 1.165-1.314.28-1.809-.595-.332-1.833-.191-2.698-.182v.42c.15.002.301.006.452.01v3.494c-.151.012-.301.021-.452.033-.003.137-.007.273-.011.408.995.004 2.217.133 2.86-.246.455-.27.872-.965.44-1.582C39.298 151.281 39.062 151.266 38.677 151.102zM32.978 151.23c.004-.582.007-1.162.011-1.742.236-.02.505-.037.699.043.469.189.739.877.365 1.375C33.841 151.191 33.461 151.24 32.978 151.23zm1.989 1.375c-.18-.332-.451-1.049-.806-1.172-.004-.014-.007-.029-.011-.043.767-.209 1.259-1.381.506-1.979-.591-.469-1.82-.355-2.861-.344-.007.137-.014.273-.021.408v.012c.144.006.288.014.43.021v3.473c-.139.01-.279.021-.418.031-.004.137-.007.273-.012.41v.01h1.667c.004-.141.007-.279.011-.42-.161-.006-.323-.014-.484-.021.003-.443.007-.887.011-1.332.185-.006.403-.029.549.031.414.176.655 1.385 1 1.732.079.07.915.014 1.085.01l.011-.43c-.136-.012-.273-.021-.408-.031C35.082 152.908 35.037 152.734 34.967 152.605zM28.225 151.768c.201-.6.402-1.197.603-1.795.014.004.029.006.042.01l.581 1.785H28.225zM29.29 149.014c-.155-.041-.482-.029-.624.012-.495 1.316-.989 2.631-1.484 3.947-.087.041-.266.043-.387.041v.42h1.538v-.43c-.165-.004-.33-.008-.495-.012.079-.258.158-.516.237-.773.495-.006.99-.014 1.484-.021.121.203.24.547.279.795-.154.008-.308.016-.461.021v.42h1.677v-.43c-.129-.004-.258-.008-.387-.012C30.208 151.666 29.749 150.342 29.29 149.014zM42.892 153.059c-1.147.188-1.601-1.275-1.366-2.367.111-.514.337-.984.774-1.172.115-.029.229-.057.345-.086.282-.002.495.025.667.129C44.313 150.168 44.274 152.83 42.892 153.059zM42.655 148.992c-.186.037-.373.072-.559.109-.55.176-.935.549-1.204 1.01-.108.186-.184.426-.237.656-.063.27-.063.688-.01.967.194 1.043.729 1.594 1.796 1.764 1.758.279 2.878-1.699 2.258-3.291C44.39 149.418 43.777 148.98 42.655 148.992z"/><path fill="#fff" d="M69.017 80.324s0 .162.0.361.016.361.016.361H7.187s-.014-.162-.014-.361.014-.361.014-.361h61.83zM69.003 80.324c0-10.738.0-23.621.0-23.621H38.091h.017H7.181s0 12.849.0 23.621M33.501 72.15c.355.0.644.289.644.645s-.288.645-.644.645-.645-.289-.645-.645S33.145 72.15 33.501 72.15zm-4.618 1.502c.311-.174.703-.061.875.25.174.311.062.703-.25.875-.31.174-.702.063-.875-.25C28.46 74.217 28.572 73.824 28.883 73.652zM31.299 72.979c.185.0.336.152.336.336.0.188-.151.336-.336.336-.186.0-.337-.148-.337-.336C30.962 73.131 31.113 72.979 31.299 72.979zM35.762 72.205c.186.0.336.152.336.338s-.15.336-.336.336c-.185.0-.335-.15-.335-.336S35.577 72.205 35.762 72.205zM43.227 72.795c0 .355-.289.645-.645.645-.355.0-.643-.289-.643-.645s.288-.645.643-.645C42.938 72.15 43.227 72.439 43.227 72.795zM47.45 74.527c-.172.313-.564.424-.875.25-.311-.172-.422-.564-.25-.875.173-.311.565-.424.876-.25C47.511 73.824 47.623 74.217 47.45 74.527zM45.121 73.314c0 .188-.151.336-.336.336-.186.0-.336-.148-.336-.336.0-.184.15-.336.336-.336C44.97 72.979 45.121 73.131 45.121 73.314zM40.657 72.543c0 .186-.15.336-.336.336-.185.0-.335-.15-.335-.336s.15-.338.335-.338C40.507 72.205 40.657 72.357 40.657 72.543zm-2.626-7.971c.36.0.653.293.653.654s-.292.652-.653.652-.656-.291-.656-.652S37.67 64.572 38.031 64.572zm0-1.826c.36.0.653.293.653.654.0.359-.292.652-.653.652s-.656-.293-.656-.652C37.375 63.039 37.67 62.746 38.031 62.746zM38.031 60.916c.36.0.653.293.653.654s-.292.652-.653.652-.656-.291-.656-.652S37.67 60.916 38.031 60.916zM34.873 61.084c.36.0.653.293.653.654s-.292.652-.653.652-.653-.291-.653-.652S34.512 61.084 34.873 61.084zM32.732 60.381c.36.0.653.291.653.652.0.359-.293.652-.653.652-.361.0-.654-.293-.654-.652C32.078 60.672 32.371 60.381 32.732 60.381zM30.52 59.896c.36.0.653.293.653.652.0.361-.293.654-.653.654-.361.0-.654-.293-.654-.654C29.866 60.189 30.158 59.896 30.52 59.896zm-2.247.311c.36.0.653.293.653.654s-.292.652-.653.652c-.361.0-.653-.291-.653-.652S27.912 60.207 28.273 60.207zm-1.946 1.219c.36.0.653.293.653.654.0.359-.293.652-.653.652-.361.0-.653-.293-.653-.652C25.673 61.719 25.965 61.426 26.327 61.426zm-1.129 1.98c.36.0.653.291.653.652s-.293.654-.653.654c-.361.0-.654-.293-.654-.654S24.837 63.406 25.198 63.406zM25.22 65.705c.361.0.653.291.653.652s-.292.654-.653.654c-.36.0-.653-.293-.653-.654S24.86 65.705 25.22 65.705zm.811 2.121c.36.0.653.293.653.652.0.361-.292.654-.653.654-.361.0-.653-.293-.653-.654C25.377 68.119 25.669 67.826 26.031 67.826zM41.88 61.738c0 .361-.292.652-.653.652s-.653-.291-.653-.652.292-.654.653-.654C41.588 61.084 41.88 61.377 41.88 61.738zM44.022 61.033c0 .359-.293.652-.653.652-.361.0-.653-.293-.653-.652.0-.361.292-.652.653-.652C43.729 60.381 44.022 60.672 44.022 61.033zM46.234 60.549c0 .361-.292.654-.653.654s-.653-.293-.653-.654c0-.359.292-.652.653-.652C45.941 59.896 46.234 60.189 46.234 60.549zM48.481 60.861c0 .361-.293.652-.653.652-.361.0-.654-.291-.654-.652s.292-.654.654-.654C48.188 60.207 48.481 60.5 48.481 60.861zm1.946 1.219c0 .359-.293.652-.654.652s-.653-.293-.653-.652c0-.361.292-.654.653-.654S50.427 61.719 50.427 62.08zm1.129 1.979c0 .361-.293.654-.653.654-.361.0-.654-.293-.654-.654s.292-.652.654-.652C51.263 63.406 51.556 63.697 51.556 64.059zM51.533 66.357c0 .361-.292.654-.653.654-.36.0-.653-.293-.653-.654s.292-.652.653-.652C51.24 65.705 51.533 65.996 51.533 66.357zM50.723 68.479c0 .361-.292.654-.654.654-.36.0-.653-.293-.653-.654.0-.359.293-.652.653-.652C50.431 67.826 50.723 68.119 50.723 68.479zM44.305 78.893c.028-.049.553-.271.553-.271 1.372-.639 1.869-1.428 1.869-2.006.0-1.141-3.735-2.418-8.733-2.418-5.002.0-8.736 1.277-8.736 2.418.0.58.538 1.377 1.944 2.018.0.0.578.256.568.277-.037.086-.501-.039-.662-.098-1.55-.523-2.574-1.262-2.574-2.197.0-2.041 4.873-3.141 9.46-3.141 4.584.0 9.456 1.1 9.456 3.141.0.93-1.009 1.664-2.542 2.188C44.907 78.803 44.253 78.979 44.305 78.893zM38.031 71.412c-2.885.0-5.632.41-7.54 1.127-.882.332-1.43.652-1.851.924-.102.064-.232.074-.343.025-.188-.082-.215-.238-.253-.455-.078-.439-.287-1.584-1.005-2.943-.074-.141.092-.295.214-.141.432.545 1.333 2.096 1.433 2.584.002.01.012.043.012.043s.037-.018.044-.021c.377-.215.86-.453 1.494-.691 1.986-.746 4.825-1.174 7.794-1.174h.033c2.973.0 5.813.428 7.799 1.174.635.238 1.117.477 1.494.691.008.004.043.021.043.021s.01-.033.012-.043c.1-.488 1.002-2.039 1.433-2.584.123-.154.288.0.215.141-.719 1.359-.929 2.504-1.006 2.943-.038.217-.064.373-.252.455-.111.049-.242.039-.344-.025-.419-.271-.968-.592-1.851-.924-1.908-.717-4.655-1.127-7.544-1.127H38.031zm1.426-12.23c0 .199-.162.361-.362.361h-.684v.721c0 .199-.162.361-.362.361s-.362-.162-.362-.361v-.721H37c-.2.0-.362-.162-.362-.361.0-.201.162-.363.362-.363h.687v-.664c0-.199.162-.361.362-.361s.362.162.362.361v.664h.684C39.294 58.818 39.457 58.98 39.457 59.182zM37.994 75.209c2.617.0 7.567.418 7.567 2.004s-4.95 2.006-7.567 2.006c-2.618.0-7.57-.42-7.57-2.006S35.375 75.209 37.994 75.209zM49.932 65.098c0 2.006-1.608 4.195-2.294 5.131l-.01.012-.02.045.003-.016c-.317.633-1.138 1.172-2.176.834-.532-.172-1.079-.275-1.399-.889-.167-.32-.287-.738.063-1.189.09-.115.36-.26.481-.197.095.049.167.252.049.389-.167.193-.08.547.214.703.208.109.431.004.457-.082.011-.039-.382-.295-.031-.586.266-.207.963-.887.014-1.334-.743-.35-1.317.654-1.388.795-.071.139-.154.084-.125-.057.146-.721.759-.951.915-1.748.117-.594-.305-1.074-.526-1.279-.075-.07-.214-.092-.331-.045-.294.113-.826.393-.943.963-.164.795.313 1.244.169 1.965-.028.141-.126.16-.138.004s-.154-1.305-.974-1.27c-1.048.047-.667.941-.501 1.234.209.406-.238.484-.25.51-.039.082.133.295.385.271.331-.029.548-.322.469-.566-.056-.17.088-.33.196-.338.135-.012.329.227.367.367.148.551-.125.891-.401 1.123-.532.441-1.348.387-1.781.342-1.473-.156-1.567-1.053-1.567-1.053.307.131.988.373.988.373.022.008.046.012.072.012.125.0.228-.102.228-.227v-1.414c0-.125-.103-.227-.228-.227.0.0-.06.006-.087.016l-1.009.402.286-.811c.012-.027.018-.059.018-.09.0-.127-.102-.229-.229-.229l-.848.002-.845-.002c-.126.0-.228.102-.228.229.0.031.006.063.019.09l.285.811L36.27 67.67c-.026-.01-.087-.016-.087-.016-.125.0-.227.102-.227.227v1.414c0 .125.102.227.227.227.026.0.049-.004.073-.012.0.0.68-.242.984-.373.0.0-.094.896-1.564 1.053-.434.045-1.249.1-1.781-.342-.276-.232-.549-.572-.401-1.123.039-.141.232-.379.368-.367.107.008.251.168.196.338-.079.244.137.537.468.566.252.023.424-.189.386-.271-.013-.025-.461-.104-.25-.51.165-.293.546-1.188-.502-1.234-.82-.035-.963 1.113-.974 1.27-.01.156-.11.137-.138-.004-.143-.721.333-1.17.169-1.965-.117-.57-.648-.85-.942-.963-.117-.047-.256-.025-.332.045-.221.205-.643.686-.526 1.279.157.797.77 1.027.916 1.748.028.141-.056.195-.126.057-.07-.141-.645-1.145-1.388-.795-.949.447-.252 1.127.015 1.334.351.291-.043.547-.032.586.026.086.25.191.458.082.293-.156.381-.51.213-.703-.117-.137-.046-.34.05-.389.121-.063.391.082.481.197.349.451.229.869.063 1.189-.32.613-.869.717-1.399.889-1.039.338-1.859-.201-2.176-.834l.002.016-.02-.045-.01-.014c-.687-.936-2.295-3.125-2.295-5.129.0-1.973 1.737-3.461 4.04-3.461 1.01.0 1.964.35 2.886.686 1.009.369 1.966.699 2.949.6v-2.025c0-.199.162-.361.362-.361s.362.162.362.361v5.326h2.569v-5.326c0-.199.162-.361.362-.361s.362.162.362.361v2.025c.983.1 1.941-.23 2.95-.6.922-.336 1.875-.686 2.885-.686C48.196 61.637 49.932 63.125 49.932 65.098zM37.994 78.494c4.515.0 6.843-.898 6.843-1.281s-2.328-1.281-6.843-1.281c-4.518.0-6.847.898-6.847 1.281S33.476 78.494 37.994 78.494zM36.042 63.66c-.225.018-.448.021-.668.006.242.102.465.227.668.373V63.66zm12.822 3.041c.205-.537.344-1.084.344-1.604.0-1.561-1.425-2.736-3.315-2.736-.882.0-1.734.311-2.637.641-.36.131-.725.262-1.094.375.103-.004.199-.023.305-.021 1.209.023 2.378.471 2.978 1.098 1.33-.016 2.311.375 2.915 1.162C48.624 65.959 48.778 66.336 48.864 66.701zM40.058 63.66v.379c.203-.146.427-.271.668-.373C40.507 63.682 40.283 63.678 40.058 63.66zM47.786 66.057c-.476-.621-1.303-.916-2.459-.877-.117.004-.228-.049-.299-.143-.342-.447-1.36-.936-2.574-.959-.593-.012-1.688.092-2.367.914-.007.01-.021.008-.029.016v.926c.274-.283.635-.57 1.065-.779.118-.059.447-.18.729-.199.244-.02.454.055.457.139.003.088-.565.307-1.052.682-.371.283-.696.65-.886.902.311-.066.495.078.495.25.202-.203.524-.381 1.045-.404.088-.004.168.012.25.021.007-.051.004-.092.015-.145.203-.984 1.221-1.459 1.681-1.586.322-.088.601.121.601.121.387.283.971.943.971 1.77.0.113-.011.227-.033.344-.01.049-.026.088-.039.133.078.023.156.045.235.082.671.316.855.77.891 1.094.005.045.007.09.007.133.0.461-.266.838-.507 1.088.005.018.015.029.019.045.018.066.026.133.026.199.0.229-.106.449-.294.613.05.014.087.004.134.012.388-.127.875-.459 1.136-1.344.448-1.527-1.285-2.736-1.104-2.992.087-.123.337-.006.337-.006.861.432 1.687 1.322 1.573 2.607.113-.176.229-.363.343-.559.002-.012.0-.021.003-.033C48.289 67.682 48.307 66.734 47.786 66.057zm-13.848-2.68c-.369-.113-.733-.244-1.093-.375-.903-.33-1.755-.641-2.638-.641-1.891.0-3.316 1.176-3.316 2.736.0.516.142 1.063.346 1.6.087-.365.24-.738.502-1.08.604-.789 1.585-1.18 2.916-1.164.598-.625 1.767-1.074 2.975-1.098C33.737 63.354 33.833 63.373 33.938 63.377zM38.668 72.436c0 .354-.287.641-.642.641s-.642-.287-.642-.641c0-.355.287-.643.642-.643S38.668 72.08 38.668 72.436zM36.042 65.008c-.008-.008-.021-.006-.028-.016-.679-.822-1.775-.926-2.369-.914-1.213.023-2.23.512-2.572.959-.071.094-.183.146-.299.143-1.157-.039-1.984.256-2.46.877-.52.678-.502 1.625-.369 2.064.003.012.001.023.003.035.114.193.229.377.343.553-.111-1.283.712-2.172 1.573-2.604.0.0.251-.117.337.006.181.256-1.552 1.465-1.103 2.992.273.932.803 1.26 1.199 1.369l.07-.037c-.188-.164-.293-.385-.293-.613.0-.066.009-.133.025-.199.004-.016.014-.027.02-.045-.242-.25-.508-.627-.508-1.088.0-.043.002-.088.007-.133.036-.324.219-.777.89-1.094.08-.037.158-.059.236-.082-.013-.045-.029-.084-.039-.133-.023-.117-.033-.23-.033-.344.0-.826.583-1.486.971-1.77.0.0.278-.209.601-.121.459.127 1.478.602 1.68 1.586.011.053.008.094.015.145.082-.01.162-.025.251-.021.521.023.842.201 1.045.404.0-.172.184-.316.495-.25-.19-.252-.516-.619-.886-.902-.487-.375-1.057-.594-1.053-.682.003-.084.212-.158.458-.139.281.02.61.141.729.199.43.209.79.496 1.064.779V65.008z"/><g><path fill="#fff" d="M70.911 55.008H5.469v33.05c0 9.697 2.705 18.105 6.529 25.168-1.003.404-2.048 1.275-3.016 3.17l-1.235 2.58-.895 1.922c-.357.74-.786 1.945-.786 3.453.0 2.158.855 4.33 2.542 6.453 2.757 3.467 8.525 7.166 15.427 9.895.0.0.557.223 1.032.412-.48.408-1.171.996-1.171.996l-.504.408c-.014.012-.439.391-.439.391-.039.035-.176.184-.176.184-.747.816-1.065 1.719-1.065 3.023v5.992c0 2.482 2.718 3.967 7.271 3.967h18.232c4.553.0 7.272-1.484 7.272-3.967v-5.992c0-1.289-.327-2.217-1.06-3.012.014.016-.125-.156-.125-.156-.231-.197-.376-.313-.493-.389.002.0.023.002.023.002s-1.122-.953-1.702-1.445c.476-.191 1.034-.416 1.034-.416 6.901-2.727 12.668-6.426 15.424-9.893 1.687-2.123 2.542-4.293 2.542-6.451.0-1.512-.43-2.719-.791-3.465l-.886-1.9-1.224-2.563c-.726-1.42-1.741-2.441-2.96-3.016 3.883-7.105 6.642-15.576 6.642-25.352V55.008zm-4.354 61.75 1.218 2.551.887 1.902c.329.68.718 1.773.718 3.143.0 1.984-.8 3.996-2.379 5.984-2.678 3.367-8.328 6.98-15.114 9.664l-2.19.877 2.65 2.252c.043.029.399.32.407.326.003.008.106.135.106.135.61.664.876 1.436.876 2.521v5.992c0 2.014-2.438 3.217-6.522 3.217H28.982c-4.083.0-6.521-1.203-6.521-3.217v-5.992c0-1.115.251-1.844.868-2.518-.001.002.13-.139.132-.141.005-.004.418-.369.418-.369l.508-.412c.009-.008 2.114-1.797 2.114-1.797l-2.189-.875c-6.787-2.684-12.438-6.295-15.117-9.664-1.578-1.986-2.378-4-2.378-5.986.0-1.367.388-2.457.714-3.131l.896-1.924 1.229-2.568c.895-1.75 1.812-2.514 2.703-2.848.12.215.235.438.357.65-.544.295-1.04.738-1.391 1.316-.417.689-.628 1.484-.628 2.363.0.799.183 1.65.543 2.537l.522 1.285s2.056-2.977 2.676-3.875c.072.238.15.496.15.496.181.598.696 1.109 1.414 1.404.124.051.25.078.375.111.483.666.972 1.316 1.467 1.951-1.027 1.477-2.487 3.574-2.487 3.574l.548.438c2.091 1.672 4.003 2.793 4.54 3.098 1.517.859 2.999 1.537 4.432 2.191 1.344.615 2.658 1.221 3.811 1.912.883.746 1.727 1.426 2.52 2.041.814.975 1.311 2.143 1.311 3.629v4.254c0 1.418-.442 2.109-.92 2.643l-1.118 1.25h15.238l-1.116-1.25c-.479-.535-.923-1.227-.923-2.643v-4.254c0-1.309.368-2.363 1-3.256 1.04-.795 2.174-1.703 3.383-2.738 1.008-.555 2.124-1.068 3.289-1.602 1.446-.662 2.924-1.34 4.401-2.178 1.426-.809 3.08-1.939 4.538-3.105l.546-.438s-1.388-2.01-2.395-3.467c.538-.684 1.067-1.391 1.591-2.115.053-.018.107-.025.16-.047.719-.295 1.235-.807 1.416-1.404.0.0.072-.236.15-.496.62.898 2.674 3.873 2.674 3.873l.523-1.285c.361-.885.543-1.736.543-2.535.0-.879-.211-1.674-.628-2.361-.322-.533-.762-.949-1.259-1.246.098-.172.189-.35.286-.521C64.991 114.582 65.906 115.484 66.557 116.758zM18.324 122.742c2.662 3.33 5.438 6.172 8.025 8.533-.383-.178-.77-.357-1.161-.535-1.419-.648-2.886-1.318-4.375-2.162-.523-.297-2.393-1.395-4.441-3.031C16.562 125.275 17.491 123.941 18.324 122.742zM44.042 146.4c-1.377.0-10.506.0-11.886.0.55-.613 1.111-1.469 1.111-3.143v-4.254c0-.904-.159-1.695-.438-2.404 2.655 1.947 4.424 2.973 4.498 3.016l.863.492.865-.492c.071-.041 1.721-1 4.226-2.824-.227.658-.353 1.387-.353 2.213v4.254C42.929 144.93 43.492 145.785 44.042 146.4zm6.149-15.285c2.51-2.307 5.189-5.064 7.766-8.275l1.864 2.699c-1.428 1.143-3.046 2.25-4.439 3.039-1.449.822-2.912 1.492-4.326 2.141C50.765 130.852 50.477 130.984 50.191 131.115zM57.517 122.203c-3.301 4.139-6.788 7.535-9.854 10.166l-3.584 2.898c-3.147 2.391-5.311 3.648-5.393 3.695.0.0-.293.166-.495.281-.195-.111-.492-.281-.492-.281-.086-.049-2.467-1.428-5.874-4.057l-2.76-2.229c-3.178-2.689-6.842-6.227-10.295-10.574l-.48-.623c-.313-.402-.625-.805-.932-1.221l-.536-.746c-1.043-1.453-2.05-2.98-3.004-4.586l-.403-.672c-.106-.186-.206-.379-.311-.566l-.377-.686C8.919 106.008 6.22 97.674 6.22 88.057c0 0 0-31.568.0-32.3.737.0 63.206.0 63.942.0.0.732.0 32.3.0 32.3.0 9.674-2.74 18.053-6.592 25.078l-.378.688c-.087.154-.169.314-.257.469l-.406.67c-.318.535-.637 1.068-.967 1.586l-.18.273c-.586.908-1.189 1.787-1.804 2.643l-.58.811c-.33.445-.665.875-1 1.305L57.517 122.203z"/></g><path fill="#fff" d="M19.11 26c-.233.164-.367.422-.453.406-.172-.031-.484-.547-.469-.656s1.511-.663 1.623-.597-.136.614-.136.614S19.343 25.836 19.11 26z"/><path fill="#fff" d="M25.204 15.844l.172-.234c.203.375.75 1.047.766 1.203.01.101-.058.588-.172.781-.063.105-.203-.016-.203-.016s-.209-1.151-.125-.906C25.684 16.794 25.407 16.188 25.204 15.844z"/><path fill="#fff" d="M36.782 9.594c.031-.313.047-.859.047-.859s.672 1.234.719 1.422-.419.31-.516.406c-.141.141-.281.531-.281.531l-.25-.281S36.751 9.906 36.782 9.594z"/><path fill="#fff" d="M27.501 13.531c.25.172 1.438.484 1.594.531.031.125.096.372-.109.484-.313.172-.508-.343-.875-.578-.323-.208-.641-.313-.641-.313s-.156-.078-.141-.141"/><path fill="#fff" d="M49.4 12.664c-.212.227-.728.914-.712 1.008s.281-.047.281-.047.938-.781 1.078-.938S49.4 12.664 49.4 12.664z"/></g></g></g></svg>